<svg xmlns="http://www.w3.org/2000/svg" width="371" height="314" fill="none"><path fill="#E4F2FF" fill-rule="evenodd" d="M53.795 281.074c24.19 9.344 16.027 17.946 20.034 31.665h243.005c8.088-49.463-47.265-62.069.371-98.703 53.35-41.009 22.631-118.578-26.935-129.627-49.565-11.05-29.383-29.366-83.697-49.092C152.184 15.59 78.058 67.575 95.347 103.542c17.289 35.966 9.572 75.343-39.4 88.321-43.778 11.568-35.913 76.159-2.152 89.211Z" clip-rule="evenodd"/><path fill="#E4F2FF" fill-rule="evenodd" d="M327.222 264.24s-19.515-7.489-10.908-21.802c8.608-14.238 25.525-11.123 28.642 2.002 3.042 13.126-3.191 20.245-17.734 19.8ZM68.858 119.411s-37.99 15.722-41.107-17.353c-3.116-33.074 25.673-33.445 32.945-31.294 7.271 2.076 36.061 19.726 8.162 48.647Z" clip-rule="evenodd"/><path fill="#fff" d="M251.957 92.784c-.003-2.296.745-4.194 2.244-5.697 1.499-1.592 3.397-2.389 5.694-2.392 3.62-.006 6.888-.54 9.801-1.604 2.913-1.151 5.206-2.965 6.881-5.44 1.762-2.473 2.641-5.74 2.635-9.801-.005-3.001-.76-5.648-2.265-7.941-1.416-2.293-3.406-4.1-5.97-5.42-2.475-1.32-5.302-1.978-8.482-1.973-2.473.004-4.812.449-7.019 1.334a22.03 22.03 0 0 0-5.824 3.584c-1.411 1.238-3.132 2.168-5.163 2.789-1.942.532-3.93.05-5.964-1.448-2.122-1.585-3.273-3.482-3.453-5.688-.18-2.207.656-4.238 2.508-6.095a33.155 33.155 0 0 1 11.117-7.564c4.325-1.86 8.917-2.794 13.774-2.801 6.095-.01 11.573 1.395 16.435 4.212 4.95 2.73 8.885 6.43 11.807 11.105 2.922 4.674 4.388 9.968 4.397 15.882.006 4.414-.65 8.343-1.97 11.787-1.319 3.357-3.215 6.272-5.683 8.748-2.382 2.387-5.205 4.333-8.471 5.838-3.177 1.417-6.664 2.438-10.461 3.061-.177.09-.353.178-.53.266-.088.089-.132.22-.131.397l.007 4.9c.003 2.294-.745 4.238-2.244 5.829-1.499 1.503-3.397 2.256-5.693 2.259-2.297.004-4.197-.743-5.7-2.241-1.504-1.587-2.258-3.528-2.261-5.823l-.016-10.063Zm7.351 41.83c-2.562.003-4.55-.656-5.965-1.978-1.328-1.41-1.993-3.395-1.997-5.955l-.003-2.251c-.004-2.56.655-4.503 1.978-5.829 1.411-1.414 3.398-2.123 5.959-2.127l1.722-.003c2.562-.004 4.506.699 5.832 2.11 1.415 1.322 2.126 3.263 2.129 5.823l.003 2.25c.005 2.56-.699 4.548-2.11 5.962-1.323 1.326-3.265 1.991-5.826 1.995l-1.722.003Z"/><path fill="#2E4ECC" d="m254.201 87.087.263.262.003-.004.004-.004-.27-.254Zm15.494-3.996.128.349.009-.004-.137-.345Zm6.882-5.44-.303-.214-.005.007.308.208Zm.37-17.742-.315.195.005.008.31-.203Zm-5.97-5.42-.174.327.004.003.17-.33Zm-15.501-.639-.139-.344-.004.002.143.342Zm-5.824 3.584-.241-.282-.004.004.245.278Zm-5.163 2.789.098.357.005-.001.005-.002-.108-.354Zm-5.964-1.448-.222.297.002.002.22-.299Zm-.945-11.783.263.262.003-.003-.266-.259Zm11.117-7.564.143.342.004-.001-.147-.34Zm30.209 1.411-.186.321.006.004.18-.325Zm14.234 38.774.345.136.001-.003-.346-.133ZM278.986 94.2l.151.34.005-.003-.156-.337Zm-10.461 3.061-.061-.365-.055.009-.051.025.167.331Zm-.53.266-.166-.331-.054.027-.043.042.263.262Zm-2.368 11.126.263.262.003-.004.004-.004-.27-.254Zm-11.393.018-.27.254.004.004.004.004.262-.262Zm-.891 23.966-.271.254.009.009.008.008.254-.271Zm13.491-14.055-.27.254.008.008.009.008.253-.27Zm-14.506-25.798c-.003-2.206.712-4.007 2.136-5.434l-.526-.524c-1.574 1.579-2.356 3.574-2.352 5.96l.742-.002Zm2.143-5.442c1.425-1.513 3.223-2.272 5.423-2.276v-.741c-2.393.003-4.39.84-5.963 2.508l.54.51Zm5.423-2.276c3.658-.005 6.969-.545 9.929-1.625l-.254-.697c-2.867 1.047-6.09 1.576-9.675 1.58v.742Zm9.938-1.629c2.979-1.178 5.333-3.037 7.052-5.577l-.615-.415c-1.63 2.41-3.863 4.177-6.71 5.302l.273.69Zm7.047-5.57c1.82-2.554 2.71-5.904 2.704-10.016h-.742c.006 4.01-.862 7.194-2.567 9.587l.605.43Zm2.704-10.016c-.006-3.067-.777-5.786-2.326-8.144l-.62.406c1.462 2.227 2.199 4.803 2.204 7.738h.742Zm-2.32-8.136c-1.455-2.354-3.497-4.206-6.116-5.554l-.34.659c2.508 1.291 4.446 3.053 5.825 5.285l.631-.39Zm-6.111-5.552c-2.536-1.353-5.425-2.022-8.658-2.017l.002.742c3.127-.005 5.892.641 8.307 1.93l.349-.655Zm-8.658-2.017c-2.518.004-4.904.457-7.157 1.361l.277.689c2.161-.868 4.454-1.305 6.882-1.308l-.002-.742Zm-7.161 1.363a22.42 22.42 0 0 0-5.922 3.644l.481.565a21.68 21.68 0 0 1 5.727-3.524l-.286-.684Zm-5.926 3.648c-1.367 1.199-3.04 2.105-5.026 2.712l.216.71c2.075-.635 3.844-1.588 5.3-2.865l-.49-.557Zm-5.016 2.71c-1.805.494-3.678.06-5.646-1.39l-.44.598c2.099 1.546 4.203 2.076 6.282 1.506l-.196-.715Zm-5.644-1.388c-2.055-1.535-3.136-3.342-3.305-5.421l-.74.06c.191 2.333 1.412 4.32 3.601 5.955l.444-.594Zm-3.305-5.421c-.17-2.078.61-4.008 2.401-5.803l-.526-.523c-1.913 1.917-2.806 4.05-2.615 6.386l.74-.06Zm2.404-5.806a32.788 32.788 0 0 1 10.994-7.48l-.286-.685a33.525 33.525 0 0 0-11.24 7.648l.532.517Zm10.998-7.482c4.277-1.84 8.818-2.764 13.628-2.771l-.001-.742c-4.907.008-9.548.951-13.92 2.832l.293.68Zm13.628-2.771c6.034-.01 11.447 1.38 16.248 4.162l.371-.642c-4.923-2.853-10.466-4.271-16.62-4.262l.001.742Zm16.254 4.166c4.897 2.7 8.786 6.357 11.673 10.976l.629-.393c-2.956-4.729-6.939-8.474-11.943-11.233l-.359.65Zm11.673 10.976c2.882 4.611 4.331 9.836 4.34 15.687l.742-.002c-.01-5.978-1.492-11.34-4.453-16.078l-.629.393Zm4.34 15.687c.006 4.377-.645 8.259-1.946 11.654l.693.265c1.339-3.495 2.001-7.47 1.995-11.92h-.742Zm-1.944 11.65c-1.302 3.31-3.169 6.184-5.602 8.622l.526.524c2.506-2.513 4.429-5.472 5.766-8.874l-.69-.271Zm-5.602 8.622c-2.347 2.354-5.134 4.275-8.362 5.764l.311.673c3.302-1.523 6.163-3.494 8.577-5.913l-.526-.524Zm-8.358 5.762c-3.146 1.402-6.602 2.415-10.371 3.034l.121.732c3.825-.629 7.343-1.658 10.552-3.089l-.302-.677Zm-10.477 3.068-.529.266.333.662.529-.265-.333-.663Zm-.626.335c-.182.183-.24.427-.24.66l.742-.001c0-.058.007-.094.014-.115l.008-.017.001-.002-.525-.525Zm-.24.66.008 4.899.742-.001-.008-4.9-.742.002Zm.008 4.899c.003 2.206-.712 4.056-2.143 5.575l.54.508c1.568-1.664 2.348-3.7 2.345-6.084l-.742.001Zm-2.136 5.567c-1.424 1.428-3.224 2.148-5.431 2.151l.001.741c2.386-.004 4.381-.79 5.956-2.368l-.526-.524Zm-5.431 2.151c-2.207.003-4.01-.712-5.437-2.135l-.524.526c1.579 1.574 3.576 2.354 5.962 2.35l-.001-.741Zm-5.43-2.127c-1.435-1.514-2.156-3.363-2.159-5.568l-.742.001c.003 2.385.79 4.418 2.362 6.077l.539-.51Zm-2.159-5.568-.016-10.063-.742.001.016 10.063.742-.001Zm6.963 31.397c-2.499.003-4.385-.639-5.711-1.877l-.507.541c1.504 1.405 3.594 2.081 6.218 2.077v-.741Zm-5.694-1.861c-1.244-1.321-1.893-3.205-1.896-5.702l-.742.002c.004 2.623.687 4.709 2.097 6.208l.541-.508Zm-1.896-5.702-.003-2.251-.742.002.003 2.251.742-.002Zm-.003-2.251c-.004-2.498.639-4.332 1.87-5.566l-.526-.523c-1.414 1.418-2.091 3.47-2.086 6.091l.742-.002Zm1.87-5.566c1.323-1.326 3.204-2.015 5.696-2.018l-.001-.742c-2.631.004-4.722.734-6.221 2.237l.526.523Zm5.696-2.018 1.723-.003-.002-.742-1.722.003.001.742Zm1.723-.003c2.493-.004 4.325.679 5.561 1.993l.541-.508c-1.418-1.507-3.474-2.231-6.104-2.227l.002.742Zm5.578 2.009c1.318 1.232 2.007 3.061 2.011 5.553l.742-.001c-.004-2.628-.734-4.68-2.246-6.093l-.507.541Zm2.011 5.553.003 2.251.742-.001-.003-2.251-.742.001Zm.003 2.251c.005 2.491-.679 4.372-2.002 5.699l.525.523c1.499-1.501 2.224-3.594 2.219-6.223l-.742.001Zm-2.002 5.699c-1.231 1.234-3.064 1.882-5.564 1.886l.001.741c2.623-.003 4.673-.685 6.088-2.104l-.525-.523Zm-5.564 1.886-1.722.003v.741l1.723-.003-.001-.741Z"/><path fill="#fff" d="M308.128 200.346c.082-1.217.549-2.197 1.399-2.94.853-.789 1.889-1.143 3.107-1.061 1.922.13 3.675-.035 5.259-.492 1.588-.505 2.871-1.383 3.849-2.635 1.026-1.248 1.611-2.949 1.757-5.104.107-1.593-.197-3.024-.911-4.296-.668-1.268-1.658-2.299-2.969-3.093-1.265-.79-2.741-1.243-4.428-1.356a9.982 9.982 0 0 0-3.773.451 11.743 11.743 0 0 0-3.221 1.689c-.794.605-1.74 1.035-2.841 1.29-1.05.212-2.086-.116-3.11-.985-1.069-.919-1.61-1.967-1.625-3.144-.014-1.177.503-2.224 1.553-3.142a17.658 17.658 0 0 1 6.175-3.607c2.363-.829 4.832-1.156 7.41-.982 3.234.217 6.088 1.162 8.565 2.834 2.526 1.628 4.479 3.736 5.858 6.323 1.379 2.585 1.963 5.448 1.752 8.586-.158 2.341-.65 4.402-1.476 6.181a13.481 13.481 0 0 1-3.335 4.433c-1.351 1.18-2.919 2.109-4.708 2.789-1.737.636-3.624 1.05-5.661 1.242l-.291.121c-.05.044-.078.112-.084.207l-.176 2.599c-.082 1.218-.549 2.221-1.403 3.011-.85.742-1.884 1.072-3.103.99-1.218-.082-2.199-.548-2.942-1.397-.74-.897-1.069-1.955-.987-3.172l.36-5.34Zm2.37 22.461c-1.359-.092-2.39-.514-3.092-1.267-.653-.797-.933-1.874-.841-3.232l.08-1.195c.092-1.357.513-2.364 1.263-3.02.8-.699 1.88-1.003 3.239-.911l.914.062c1.358.091 2.365.535 3.017 1.332.702.753 1.007 1.808.916 3.167l-.081 1.194c-.091 1.359-.537 2.387-1.338 3.086-.75.655-1.804.937-3.163.845l-.914-.061Z"/><path fill="#92CDFE" d="m309.527 197.406.244.28.004-.004.003-.004-.251-.272Zm8.366-1.553.103.356.01-.003-.113-.353Zm3.849-2.635-.287-.235-.005.007.292.228Zm.846-9.4-.329.173.005.009.324-.182Zm-2.969-3.093-.198.315.006.003.192-.318Zm-8.201-.905-.114-.353-.005.002.119.351Zm-3.221 1.689-.22-.298-.005.003.225.295Zm-2.841 1.29.074.364.005-.001.006-.001-.085-.362Zm-3.11-.985-.243.281.002.001.241-.282Zm-.072-6.286.244.28.004-.004-.248-.276Zm6.175-3.607.12.352.003-.002-.123-.35Zm15.975 1.852-.208.308.007.003.201-.311Zm6.134 21.09.335.16.002-.003-.337-.157Zm-8.043 7.222.128.348.004-.001-.132-.347Zm-5.661 1.242-.035-.369-.056.005-.052.022.143.342Zm-.291.121-.143-.341-.056.023-.045.039.244.279Zm-1.663 5.817.244.278.004-.002.004-.004-.252-.272Zm-6.045-.407-.286.235.003.005.003.003.28-.243Zm-1.349 12.682-.287.235.007.009.009.009.271-.253Zm7.672-6.964-.287.235.007.009.008.009.272-.253Zm-6.58-14.204c.076-1.129.503-2.014 1.273-2.686l-.488-.559c-.932.813-1.437 1.888-1.525 3.195l.74.05Zm1.28-2.694c.775-.716 1.709-1.039 2.832-.963l.05-.739c-1.315-.089-2.453.296-3.385 1.158l.503.544Zm2.832-.963c1.957.132 3.754-.035 5.386-.506l-.206-.712c-1.537.443-3.245.605-5.13.479l-.05.739Zm5.396-.509c1.654-.526 3.002-1.447 4.029-2.76l-.585-.456c-.93 1.19-2.15 2.026-3.67 2.509l.226.707Zm4.023-2.752c1.089-1.326 1.691-3.109 1.84-5.315l-.741-.05c-.141 2.103-.71 3.723-1.673 4.894l.574.471Zm1.84-5.315c.111-1.657-.205-3.162-.958-4.502l-.647.363c.676 1.203.968 2.561.864 4.089l.741.05Zm-.953-4.493c-.702-1.332-1.74-2.411-3.105-3.238l-.384.635c1.257.761 2.198 1.744 2.833 2.948l.656-.345Zm-3.101-3.235c-1.323-.828-2.859-1.295-4.599-1.412l-.05.739c1.634.111 3.05.547 4.255 1.302l.394-.629Zm-4.599-1.412a10.353 10.353 0 0 0-3.912.468l.228.706a9.608 9.608 0 0 1 3.634-.435l.05-.739Zm-3.917.47a12.104 12.104 0 0 0-3.322 1.742l.441.596c.96-.71 2-1.255 3.12-1.636l-.239-.702Zm-3.327 1.745c-.747.569-1.644.98-2.7 1.224l.169.723c1.144-.266 2.14-.716 2.981-1.358l-.45-.589Zm-2.689 1.222c-.911.184-1.836-.089-2.798-.905l-.48.565c1.086.922 2.236 1.307 3.425 1.067l-.147-.727Zm-2.796-.903c-1.004-.864-1.481-1.818-1.495-2.868l-.742.01c.017 1.304.622 2.447 1.753 3.42l.484-.562Zm-1.495-2.868c-.013-1.048.442-1.997 1.426-2.857l-.488-.559c-1.115.974-1.696 2.12-1.68 3.426l.742-.01Zm1.43-2.861a17.271 17.271 0 0 1 6.047-3.531l-.239-.703a17.994 17.994 0 0 0-6.303 3.682l.495.552Zm6.05-3.533c2.313-.812 4.733-1.133 7.262-.963l.05-.739c-2.626-.178-5.146.157-7.558 1.003l.246.699Zm7.262-.963c3.174.214 5.965 1.14 8.382 2.773l.416-.615c-2.536-1.712-5.455-2.676-8.748-2.897l-.05.739Zm8.389 2.776c2.474 1.596 4.383 3.656 5.732 6.186l.655-.349c-1.41-2.643-3.407-4.798-5.985-6.46l-.402.623Zm5.732 6.186c1.344 2.52 1.916 5.313 1.708 8.387l.741.05c.216-3.202-.381-6.134-1.794-8.786l-.655.349Zm1.708 8.387c-.155 2.305-.638 4.32-1.442 6.051l.674.312c.848-1.828 1.349-3.935 1.509-6.313l-.741-.05Zm-1.44 6.048a13.14 13.14 0 0 1-3.245 4.313l.489.558a13.876 13.876 0 0 0 3.426-4.553l-.67-.318Zm-3.245 4.313c-1.314 1.148-2.845 2.055-4.594 2.72l.263.694c1.827-.694 3.434-1.646 4.82-2.856l-.489-.558Zm-4.59 2.719c-1.705.624-3.56 1.031-5.569 1.221l.07.738c2.065-.195 3.984-.615 5.754-1.263l-.255-.696Zm-5.677 1.248-.291.122.286.683.291-.121-.286-.684Zm-.392.184c-.15.131-.2.31-.211.46l.741.05c.001-.017.003-.016-.001-.006a.149.149 0 0 1-.041.054l-.488-.558Zm-.211.46-.175 2.6.741.05.175-2.6-.741-.05Zm-.175 2.6c-.076 1.128-.504 2.042-1.285 2.763l.504.545c.927-.857 1.433-1.951 1.522-3.258l-.741-.05Zm-1.277 2.756c-.77.673-1.705.977-2.834.9l-.05.74c1.308.088 2.441-.269 3.372-1.082l-.488-.558Zm-2.834.9c-1.129-.075-2.015-.502-2.688-1.271l-.559.487c.814.93 1.89 1.436 3.197 1.524l.05-.74Zm-2.681-1.263c-.676-.82-.979-1.782-.902-2.911l-.741-.05c-.088 1.307.267 2.459 1.071 3.432l.572-.471Zm-.902-2.911.359-5.339-.74-.05-.36 5.339.741.05Zm2.384 16.726c-1.296-.087-2.226-.486-2.846-1.15l-.542.506c.785.841 1.916 1.288 3.338 1.384l.05-.74Zm-2.83-1.131c-.575-.703-.846-1.678-.758-2.973l-.74-.05c-.096 1.421.195 2.601.924 3.492l.574-.469Zm-.758-2.973.08-1.194-.74-.051-.08 1.195.74.05Zm.08-1.194c.088-1.297.485-2.197 1.137-2.766l-.488-.559c-.848.741-1.294 1.855-1.389 3.274l.74.051Zm1.137-2.766c.707-.617 1.68-.907 2.969-.821l.051-.74c-1.429-.096-2.615.222-3.508 1.002l.488.559Zm2.969-.821.915.062.049-.74-.913-.062-.051.74Zm.915.062c1.291.087 2.186.503 2.755 1.197l.574-.47c-.737-.899-1.853-1.371-3.28-1.467l-.049.74Zm2.77 1.215c.612.656.905 1.599.818 2.889l.74.05c.096-1.427-.222-2.594-1.015-3.445l-.543.506Zm.818 2.889-.08 1.195.739.049.081-1.194-.74-.05Zm-.08 1.195c-.088 1.288-.506 2.213-1.212 2.831l.488.558c.894-.781 1.368-1.912 1.463-3.34l-.739-.049Zm-1.212 2.831c-.653.569-1.598.842-2.895.755l-.05.739c1.42.096 2.584-.195 3.433-.936l-.488-.558Zm-2.895.755-.914-.062-.05.74.914.061.05-.739ZM53.006 121.753l.338.152.002-.004.002-.006-.342-.142Zm8.876-6.245.242.281.007-.006-.25-.275Zm3.063-5.099-.359-.094-.002.008.361.086ZM60.93 99.06l-.227.294.008.006.218-.3Zm-5.088-2.01-.048.367h.005l.043-.368Zm-9.991 3.304-.251-.273-.004.004.255.269Zm-2.837 3.669-.325-.179-.003.005.328.174Zm-2.609 3.005.218.3.005-.003.004-.003-.227-.294Zm-4.132.509-.103.357.003.001.1-.358Zm-3.423-7.252.338.153.002-.005-.34-.148Zm5.243-7.46.255.269.002-.003-.257-.267Zm19.51-6.337-.061.367h.008l.053-.367Zm18.325 21.201.371.005v-.003l-.37-.002Zm-5.487 12.645.261.264.003-.003-.264-.261Zm-5.906 4.447-.185-.321-.05.028-.038.042.273.251Zm-.272.296-.273-.252-.04.044-.026.055.339.153Zm1.163 7.628.338.152.003-.006.002-.004-.343-.142Zm-7.227 2.738-.162.333.005.002.005.003.152-.338Zm5.178 15.424-.163.332.01.006.012.004.141-.342Zm5.195-12.15-.163.333.01.005.011.004.142-.342Zm-15.277-12.943c-.52-1.372-.498-2.653.05-3.869l-.677-.304c-.635 1.41-.65 2.897-.067 4.436l.694-.263Zm.054-3.879c.529-1.269 1.463-2.158 2.83-2.676l-.264-.693c-1.547.586-2.64 1.616-3.25 3.085l.684.284Zm2.83-2.676c2.33-.883 4.314-2.025 5.946-3.43l-.484-.562c-1.556 1.34-3.463 2.441-5.726 3.299l.263.693Zm5.953-3.436c1.625-1.476 2.687-3.24 3.175-5.288l-.722-.172c-.451 1.895-1.432 3.53-2.952 4.911l.5.549Zm3.173-5.279c.551-2.089.307-4.454-.689-7.077l-.693.262c.958 2.527 1.165 4.73.664 6.626l.718.189Zm-.689-7.077c-.745-1.965-1.9-3.526-3.468-4.667l-.437.6c1.44 1.048 2.513 2.486 3.212 4.329l.694-.262Zm-3.46-4.66c-1.506-1.161-3.266-1.854-5.272-2.086l-.085.737c1.881.217 3.512.864 4.904 1.936l.453-.587ZM55.89 96.68c-1.956-.254-3.97.017-6.036.8l.264.693c1.967-.745 3.857-.994 5.676-.757l.096-.736Zm-6.036.8c-1.61.61-3.03 1.477-4.254 2.6l.502.547a12.334 12.334 0 0 1 4.016-2.454l-.264-.693Zm-4.258 2.604a15.308 15.308 0 0 0-2.907 3.759l.65.358a14.58 14.58 0 0 1 2.767-3.578l-.51-.539Zm-2.91 3.764c-.571 1.071-1.404 2.034-2.508 2.886l.454.587c1.176-.908 2.082-1.949 2.709-3.125l-.655-.348Zm-2.499 2.88c-.99.719-2.243.893-3.813.451l-.201.715c1.728.485 3.23.32 4.45-.567l-.436-.599Zm-3.81.452c-1.647-.475-2.734-1.344-3.323-2.586l-.67.318c.697 1.472 1.98 2.459 3.786 2.981l.206-.713Zm-3.323-2.586c-.588-1.24-.56-2.614.134-4.157l-.677-.305c-.765 1.701-.826 3.305-.128 4.78l.67-.318Zm.136-4.162a22.108 22.108 0 0 1 5.157-7.34l-.51-.539a22.849 22.849 0 0 0-5.328 7.584l.681.295Zm5.16-7.342c2.262-2.18 4.909-3.845 7.945-4.995l-.263-.693c-3.127 1.184-5.86 2.902-8.197 5.154l.515.534Zm7.945-4.995c3.81-1.444 7.556-1.855 11.247-1.241l.121-.732c-3.83-.636-7.71-.206-11.631 1.28l.263.693Zm11.255-1.24c3.734.538 7.06 1.92 9.982 4.148l.45-.589c-3.025-2.306-6.47-3.738-10.326-4.294l-.106.734Zm9.982 4.148c2.916 2.222 5.074 5.173 6.474 8.864l.695-.263c-1.446-3.81-3.685-6.878-6.719-9.19l-.45.59Zm6.474 8.864c1.05 2.766 1.563 5.371 1.552 7.82l.742.003c.011-2.556-.524-5.251-1.6-8.086l-.694.263Zm1.552 7.816c-.033 2.397-.527 4.651-1.479 6.765l.676.304c.996-2.209 1.51-4.563 1.544-7.059l-.742-.01Zm-1.479 6.765c-.92 2.042-2.22 3.917-3.902 5.625l.528.521c1.74-1.767 3.092-3.714 4.05-5.842l-.676-.304Zm-3.9 5.621c-1.651 1.636-3.594 3.1-5.83 4.39l.372.642c2.285-1.318 4.28-2.819 5.981-4.504l-.522-.528Zm-5.917 4.46-.272.295.545.503.273-.296-.546-.502Zm-.338.394a.733.733 0 0 0 .003.568l.694-.263a.192.192 0 0 1-.01-.031v-.008a.06.06 0 0 1-.002.014.123.123 0 0 1-.008.025l-.677-.305Zm.003.568 1.179 3.107.694-.263-1.179-3.107-.694.263Zm1.179 3.107c.52 1.372.51 2.686-.022 3.963l.685.285c.608-1.461.615-2.971.03-4.511l-.693.263Zm-.018 3.953c-.548 1.215-1.492 2.082-2.865 2.602l.263.694c1.54-.583 2.643-1.582 3.278-2.991l-.676-.305Zm-2.865 2.602c-1.373.521-2.655.498-3.871-.05l-.305.677c1.41.634 2.898.651 4.439.067l-.263-.694Zm-3.862-.045c-1.245-.604-2.124-1.58-2.645-2.952l-.694.263c.584 1.539 1.59 2.666 3.015 3.356l.324-.667Zm-2.645-2.952-2.421-6.383-.694.263 2.421 6.383.694-.263Zm11.79 18.19c-1.567.593-2.885.631-3.987.177l-.283.685c1.327.547 2.848.469 4.532-.169l-.263-.693Zm-3.966.187c-1.07-.525-1.916-1.536-2.51-3.101l-.694.263c.639 1.683 1.589 2.872 2.878 3.503l.326-.665Zm-2.51-3.101-.542-1.427-.693.263.541 1.427.694-.263Zm-.542-1.427c-.594-1.567-.618-2.85-.15-3.889l-.676-.305c-.575 1.277-.505 2.776.133 4.457l.694-.263Zm-.15-3.889c.506-1.123 1.506-1.991 3.066-2.582l-.263-.694c-1.69.64-2.871 1.623-3.479 2.971l.677.305Zm3.066-2.582 1.092-.414-.263-.694-1.092.414.263.694Zm1.092-.414c1.561-.592 2.852-.591 3.913-.071l.326-.666c-1.3-.636-2.814-.597-4.502.043l.263.694Zm3.934-.062c1.093.45 1.95 1.415 2.541 2.975l.694-.263c-.64-1.687-1.614-2.847-2.952-3.397l-.283.685Zm2.541 2.975.542 1.428.693-.263-.541-1.428-.694.263Zm.542 1.428c.59 1.559.603 2.882.097 4.004l.677.305c.607-1.348.56-2.884-.08-4.572l-.694.263Zm.097 4.004c-.468 1.04-1.445 1.873-3.013 2.467l.263.693c1.683-.637 2.852-1.578 3.427-2.855l-.677-.305Zm-3.013 2.467-1.092.414.263.693 1.093-.414-.264-.693Zm31.692-97.314.259.265.004-.004.004-.003-.267-.258Zm6.421-1.57.122.35.01-.003-.132-.346Zm2.87-2.21-.299-.219-.005.008.304.211Zm.246-7.326-.318.19.005.01.313-.2Zm-2.437-2.27-.179.325.005.002.174-.327Zm-6.399-.345-.134-.346-.005.002.139.344Zm-2.424 1.45-.238-.285-.003.003.24.282Zm-2.148 1.124.094.36.005-.002.005-.002-.104-.355Zm-2.455-.628-.226.294.002.001.224-.295Zm-.328-4.872.258.265.004-.004-.263-.261Zm4.63-3.066.14.344.003-.002-.143-.342Zm12.47.74-.19.32.007.003.183-.322Zm5.677 16.09.343.14.001-.003-.344-.137Zm-5.923 5.95.147.341.004-.002-.151-.339Zm-4.337 1.21-.056-.367-.055.009-.051.025.162.333Zm-.22.107-.162-.334-.054.027-.043.042.259.265Zm-1.036 4.583.259.265.004-.003.003-.005-.266-.257Zm-4.707-.053-.272.252.004.004.003.004.265-.26Zm-.493 9.895-.273.25.008.01.008.008.257-.268Zm5.647-5.735-.274.25.008.01.009.007.257-.267Zm-5.64-10.728c.01-.859.295-1.543.845-2.08l-.518-.531c-.704.688-1.057 1.565-1.068 2.602l.741.009Zm.853-2.088c.553-.572 1.241-.855 2.093-.845l.008-.742c-1.045-.011-1.933.345-2.635 1.072l.534.515Zm2.093-.845c1.532.017 2.928-.192 4.183-.632l-.245-.7c-1.161.408-2.47.607-3.93.59l-.008.742Zm4.193-.636c1.276-.486 2.294-1.268 3.043-2.345l-.609-.423c-.66.948-1.555 1.64-2.698 2.075l.264.693Zm3.038-2.338c.8-1.093 1.191-2.52 1.211-4.25l-.742-.008c-.018 1.626-.386 2.888-1.068 3.82l.599.438Zm1.211-4.25c.015-1.304-.3-2.473-.952-3.495l-.626.4c.568.888.849 1.913.836 3.087l.742.009Zm-.946-3.486c-.611-1.016-1.475-1.818-2.582-2.406l-.348.654c.997.53 1.757 1.24 2.293 2.134l.637-.382Zm-2.577-2.404c-1.076-.591-2.302-.89-3.668-.905l-.008.741c1.261.014 2.363.289 3.318.814l.358-.65Zm-3.668-.905a8.113 8.113 0 0 0-3.044.54l.268.69c.87-.336 1.791-.5 2.768-.489l.008-.741Zm-3.049.541a9.481 9.481 0 0 0-2.523 1.509l.474.57a8.728 8.728 0 0 1 2.327-1.391l-.278-.688Zm-2.526 1.512c-.545.466-1.213.818-2.01 1.05l.207.712c.886-.258 1.65-.656 2.285-1.198l-.482-.564Zm-2 1.048c-.668.174-1.371.014-2.139-.566l-.447.591c.897.679 1.83.938 2.773.692l-.187-.717Zm-2.136-.565c-.802-.615-1.199-1.313-1.253-2.098l-.74.05c.072 1.04.607 1.92 1.54 2.637l.453-.589Zm-1.253-2.098c-.053-.784.245-1.517.957-2.214l-.518-.53c-.836.817-1.25 1.754-1.178 2.794l.74-.05Zm.961-2.218a13.326 13.326 0 0 1 4.507-2.983l-.277-.688a14.067 14.067 0 0 0-4.756 3.148l.526.523Zm4.51-2.985a13.93 13.93 0 0 1 5.558-1.056l.009-.742a14.678 14.678 0 0 0-5.851 1.113l.285.685Zm5.558-1.056c2.458.027 4.648.62 6.58 1.773l.38-.637c-2.054-1.225-4.375-1.85-6.951-1.878l-.009.742Zm6.587 1.777c1.977 1.123 3.536 2.628 4.685 4.518l.634-.385c-1.216-2-2.869-3.594-4.952-4.778l-.367.645Zm4.685 4.518c1.144 1.883 1.705 4.008 1.678 6.387l.742.008c.029-2.507-.565-4.77-1.786-6.78l-.634.385Zm1.678 6.387c-.02 1.786-.305 3.359-.848 4.725l.689.274c.583-1.466.881-3.131.901-4.991l-.742-.008Zm-.847 4.722a10.135 10.135 0 0 1-2.309 3.458l.519.53a10.873 10.873 0 0 0 2.477-3.708l-.687-.28Zm-2.309 3.458c-.963.94-2.102 1.706-3.421 2.294l.302.677a12.343 12.343 0 0 0 3.638-2.44l-.519-.53Zm-3.417 2.292c-1.287.555-2.702.95-4.246 1.183l.112.734c1.599-.242 3.076-.654 4.428-1.236l-.294-.681Zm-4.352 1.217c-.073.035-.147.07-.22.107l.324.667.221-.108-.325-.666Zm-.317.175a.594.594 0 0 0-.169.424l.742.009c0-.016.003.04-.055.097l-.518-.53Zm-.169.424-.022 2.024.742.008.022-2.023-.742-.009Zm-.022 2.024c-.01.858-.295 1.565-.853 2.142l.533.515c.698-.72 1.05-1.611 1.062-2.649l-.742-.008Zm-.846 2.135c-.55.538-1.241.807-2.1.797l-.008.742c1.038.012 1.923-.321 2.627-1.009l-.519-.53Zm-2.1.797c-.858-.009-1.542-.293-2.081-.844l-.53.519c.687.703 1.565 1.056 2.603 1.067l.008-.742Zm-2.074-.836c-.545-.59-.814-1.302-.805-2.161l-.742-.008c-.012 1.037.322 1.935 1.002 2.672l.545-.503Zm-.805-2.161.046-4.156-.741-.009-.047 4.157.742.008Zm2.496 12.784c-.995-.011-1.71-.275-2.2-.745l-.514.536c.666.637 1.585.938 2.706.95l.008-.741Zm-2.183-.728c-.459-.5-.707-1.221-.696-2.215l-.742-.009c-.013 1.12.268 2.046.89 2.726l.548-.502Zm-.696-2.215.01-.93-.742-.008-.01.93.742.008Zm.01-.93c.011-.996.276-1.686.736-2.136l-.519-.53c-.646.632-.946 1.54-.959 2.658l.742.008Zm.736-2.136c.502-.49 1.22-.753 2.209-.742l.008-.741c-1.127-.013-2.057.289-2.736.953l.519.53Zm2.209-.742.711.008.009-.742-.712-.007-.008.741Zm.711.008c.99.01 1.678.29 2.129.781l.547-.5c-.63-.688-1.542-1.01-2.667-1.023l-.009.742Zm2.146.798c.481.462.745 1.156.734 2.145l.742.008c.012-1.125-.29-2.042-.963-2.687l-.513.534Zm.734 2.145-.01.93.741.008.011-.93-.742-.008Zm-.01.93c-.011.988-.29 1.7-.792 2.19l.519.53c.679-.663 1.002-1.585 1.014-2.712l-.741-.008Zm-.792 2.19c-.46.45-1.157.7-2.153.688l-.008.742c1.119.012 2.034-.268 2.68-.9l-.519-.53Zm-2.153.688-.712-.008-.008.741.712.009.008-.742Zm209.544 36.564.225.294.005-.003.004-.003-.234-.288Zm6.639-.805.08.362.01-.002-.09-.36Zm3.149-1.876-.271-.253-.005.007.276.246Zm1.129-7.33-.338.151.004.01.334-.161Zm-2.176-2.574-.216.302.005.003.211-.305Zm-6.387-1.115-.092-.36-.005.002.097.358Zm-2.609 1.165-.202-.311-.005.003.207.308Zm-2.293.872.05.367h.005l.006-.001-.061-.366Zm-2.392-.927-.259.265.003.002.256-.267Zm.256-4.933.227.293.003-.003-.23-.29Zm5.022-2.524.097.358.004-.001-.101-.357Zm12.438 2.243-.227.293.007.005.22-.298Zm3.767 16.845.325.18.001-.003-.326-.177Zm-6.666 5.267.106.355.004-.001-.11-.354Zm-4.502.694-.011-.371-.057.002-.053.018.121.351Zm-.234.081-.122-.351-.056.02-.048.036.226.295Zm-1.592 4.479.225.294.005-.003.004-.003-.234-.288Zm-4.722-.618-.3.217.003.005.003.004.294-.226Zm-1.686 9.881-.301.216.007.01.007.009.287-.235Zm6.363-5.083-.302.216.007.01.007.009.288-.235Zm-4.379-11.456c.113-.863.482-1.516 1.1-1.992l-.451-.588c-.788.605-1.249 1.443-1.385 2.483l.736.097Zm1.109-1.998c.625-.509 1.351-.711 2.208-.599l.096-.735c-1.047-.137-1.981.114-2.773.759l.469.575Zm2.208-.599c1.536.201 2.963.16 4.277-.132l-.161-.724c-1.217.27-2.555.313-4.02.121l-.096.735Zm4.287-.134c1.339-.334 2.455-.997 3.337-1.99l-.554-.492c-.778.875-1.762 1.462-2.963 1.763l.18.719Zm3.331-1.983c.934-1.001 1.499-2.387 1.727-4.121l-.736-.096c-.214 1.631-.735 2.856-1.534 3.711l.543.506Zm1.727-4.121c.171-1.308-.004-2.52-.535-3.623l-.669.322c.463.96.623 2.026.468 3.205l.736.096Zm-.532-3.614c-.49-1.093-1.261-2.002-2.301-2.726l-.424.61c.938.651 1.617 1.457 2.049 2.419l.676-.303Zm-2.298-2.723c-1.008-.723-2.203-1.17-3.573-1.35l-.097.736c1.265.166 2.341.574 3.238 1.217l.432-.603Zm-3.573-1.35a8.189 8.189 0 0 0-3.122.177l.184.718a7.463 7.463 0 0 1 2.841-.159l.097-.735Zm-3.127.178a9.581 9.581 0 0 0-2.714 1.212l.403.623a8.81 8.81 0 0 1 2.505-1.119l-.194-.716Zm-2.719 1.215c-.604.402-1.317.676-2.147.815l.122.73c.92-.153 1.735-.46 2.437-.928l-.412-.617Zm-2.136.812c-.694.095-1.382-.15-2.084-.826l-.514.534c.819.79 1.724 1.16 2.698 1.027l-.1-.735Zm-2.082-.824c-.732-.715-1.047-1.465-1.007-2.263l-.741-.037c-.053 1.051.378 1.999 1.229 2.83l.519-.53Zm-1.007-2.263c.04-.795.429-1.497 1.23-2.112l-.452-.588c-.938.721-1.466 1.61-1.519 2.663l.741.037Zm1.233-2.115a13.498 13.498 0 0 1 4.889-2.456l-.194-.716a14.247 14.247 0 0 0-5.155 2.59l.46.582Zm4.893-2.457a14.097 14.097 0 0 1 5.711-.394l.097-.736a14.846 14.846 0 0 0-6.01.416l.202.714Zm5.711-.394c2.467.323 4.596 1.182 6.399 2.573l.454-.587c-1.916-1.477-4.171-2.383-6.756-2.722l-.097.736Zm6.406 2.578c1.851 1.366 3.237 3.065 4.165 5.103l.675-.306c-.981-2.156-2.449-3.955-4.399-5.394l-.441.597Zm4.165 5.103c.922 2.03 1.231 4.233.918 6.62l.736.097c.329-2.514.006-4.858-.979-7.023l-.675.306Zm.918 6.62c-.235 1.793-.711 3.34-1.422 4.647l.652.354c.761-1.402 1.261-3.039 1.506-4.904l-.736-.097Zm-1.421 4.644a10.242 10.242 0 0 1-2.736 3.198l.452.588a10.995 10.995 0 0 0 2.934-3.426l-.65-.36Zm-2.736 3.198c-1.081.83-2.317 1.462-3.714 1.894l.219.709c1.475-.457 2.792-1.128 3.947-2.015l-.452-.588Zm-3.71 1.893c-1.361.403-2.829.63-4.408.679l.023.741c1.635-.05 3.168-.286 4.596-.709l-.211-.711Zm-4.518.699-.235.081.244.701.234-.081-.243-.701Zm-.339.137a.593.593 0 0 0-.218.404l.736.096c.001-.016-.002.039-.066.088l-.452-.588Zm-.218.404-.267 2.03.736.097.267-2.031-.736-.096Zm-.267 2.03c-.112.863-.484 1.539-1.116 2.053l.469.575c.786-.64 1.247-1.492 1.383-2.531l-.736-.097Zm-1.107 2.046c-.619.476-1.346.663-2.209.55l-.096.735c1.04.137 1.968-.092 2.756-.697l-.451-.588Zm-2.209.55c-.863-.113-1.517-.482-1.993-1.1l-.588.452c.606.788 1.444 1.247 2.485 1.383l.096-.735Zm-1.986-1.091c-.478-.659-.663-1.409-.55-2.272l-.735-.096c-.137 1.04.09 1.981.684 2.802l.601-.434Zm-.55-2.272.547-4.169-.736-.097-.546 4.17.735.096Zm.974 13.148c-.999-.13-1.688-.482-2.124-1.013l-.574.47c.591.719 1.478 1.132 2.601 1.279l.097-.736Zm-2.11-.995c-.401-.558-.564-1.314-.433-2.312l-.735-.096c-.148 1.123.023 2.086.566 2.841l.602-.433Zm-.433-2.312.122-.933-.735-.096-.122.933.735.096Zm.122-.933c.132-.999.481-1.662.998-2.06l-.452-.588c-.724.555-1.134 1.43-1.281 2.552l.735.096Zm.998-2.06c.564-.433 1.32-.611 2.312-.481l.096-.735c-1.13-.148-2.099.044-2.86.628l.452.588Zm2.312-.481.713.093.097-.735-.714-.093-.096.735Zm.713.093c.995.131 1.653.494 2.048 1.043l.603-.432c-.55-.765-1.426-1.198-2.554-1.346l-.097.735Zm2.062 1.062c.43.523.612 1.253.481 2.246l.736.096c.148-1.128-.045-2.085-.643-2.812l-.574.47Zm.481 2.246-.122.933.736.096.122-.933-.736-.096Zm-.122.933c-.13.992-.496 1.675-1.06 2.108l.452.588c.761-.584 1.195-1.471 1.344-2.6l-.736-.096Zm-1.06 2.108c-.518.397-1.249.564-2.25.433l-.096.736c1.123.146 2.074-.025 2.798-.581l-.452-.588Zm-2.25.433-.713-.094-.097.736.714.094.096-.736Z"/><path fill="#92CDFE" fill-rule="evenodd" d="M210.728 192.53c1.484.742 2.745 1.706 3.933 2.744l4.229-1.483 3.933 6.229-3.191 3.189c.445 1.557.742 3.115.816 4.746l4.007 1.928-1.632 7.193h-4.452c-.742 1.484-1.707 2.744-2.746 3.931l1.484 4.227-6.232 3.93-3.191-3.189c-1.558.445-3.117.742-4.749.816l-1.929 4.005-7.197-1.632v-4.449c-1.484-.742-2.746-1.706-3.933-2.744l-4.23 1.483-3.932-6.229 3.19-3.189c-.445-1.557-.741-3.115-.816-4.746l-4.007-1.928 1.633-7.193h4.452c.742-1.484 1.707-2.744 2.745-3.931l-1.484-4.227 6.233-3.93 3.191 3.189c1.558-.445 3.116-.742 4.749-.816l1.929-4.005 7.197 1.632v4.449Zm-6.307 8.454a7.92 7.92 0 0 0-9.497 6.007 7.915 7.915 0 0 0 6.01 9.492 7.92 7.92 0 0 0 9.497-6.007c.965-4.227-1.781-8.528-6.01-9.492Z" clip-rule="evenodd"/><path stroke="#92CDFE" stroke-miterlimit="10" d="M292.051 141.658c1.188.594 2.226 1.409 3.191 2.225l3.413-1.186 3.191 5.042-2.597 2.596c.371 1.26.593 2.521.668 3.856l3.264 1.557-1.335 5.859h-3.636c-.594 1.186-1.41 2.224-2.226 3.188l1.187 3.412-5.045 3.188-2.597-2.595a16.804 16.804 0 0 1-3.859.667l-1.558 3.263-5.862-1.335v-3.633c-1.187-.593-2.226-1.409-3.19-2.225l-3.414 1.187-3.19-5.043 2.597-2.596a16.77 16.77 0 0 1-.668-3.856l-3.265-1.409 1.336-5.858h3.636c.593-1.187 1.409-2.225 2.226-3.189l-1.188-3.411 5.046-3.189 2.597 2.596a16.797 16.797 0 0 1 3.858-.668l1.559-3.263 5.861 1.335v3.485Zm-5.119 6.897c-3.488-.816-6.901 1.409-7.717 4.894-.816 3.486 1.41 6.897 4.897 7.713 3.487.816 6.901-1.409 7.717-4.895.742-3.485-1.484-6.97-4.897-7.712Zm45.558 76.53c.594.297 1.039.668 1.558 1.039l1.633-.594 1.558 2.448-1.187 1.186c.148.593.297 1.187.297 1.854l1.558.742-.594 2.818h-1.706c-.297.593-.668 1.038-1.039 1.557l.593 1.631-2.448 1.558-1.187-1.187c-.594.148-1.188.297-1.855.297l-.742 1.557-2.82-.593v-1.706c-.594-.296-1.039-.667-1.558-1.038l-1.633.593-1.632-2.595 1.187-1.187c-.148-.593-.297-1.186-.297-1.854l-1.558-.741.594-2.818h1.706c.297-.594.668-1.039 1.039-1.558l-.593-1.631 2.448-1.557 1.187 1.186c.594-.148 1.188-.297 1.855-.297l.742-1.557 2.82.593.074 1.854Zm-2.448 3.263a3.051 3.051 0 0 0-3.636 2.299c-.371 1.632.668 3.263 2.3 3.634 1.632.371 3.265-.668 3.636-2.299.371-1.631-.668-3.263-2.3-3.634ZM52.904 251.485c1.113.594 2.226 1.335 3.117 2.225l3.339-1.261 3.116 4.969-2.523 2.521c.371 1.187.594 2.448.668 3.782l3.19 1.484-1.26 5.71h-3.562c-.594 1.112-1.336 2.224-2.226 3.114l1.187 3.337-4.971 3.115-2.523-2.521c-1.187.37-2.449.593-3.784.667l-1.484 3.189-5.714-1.261v-3.559c-1.113-.594-2.226-1.335-3.116-2.225l-3.34 1.186-3.116-4.968 2.523-2.522a15.506 15.506 0 0 1-.667-3.782l-3.191-1.483 1.261-5.71h3.562c.593-1.112 1.335-2.225 2.226-3.114l-1.187-3.337 4.971-3.115 2.523 2.521a15.52 15.52 0 0 1 3.784-.667l1.484-3.189 5.713 1.261v3.633Zm-5.045 6.675c-3.413-.742-6.752 1.334-7.494 4.746-.742 3.411 1.335 6.748 4.748 7.49 3.414.741 6.753-1.335 7.495-4.747.742-3.337-1.41-6.674-4.75-7.489Z" clip-rule="evenodd"/><path fill="#161522" d="M107.591 222.712s-25.08 59.623-20.628 90.398h117.978s-11.723-76.53-24.857-94.847c-13.133-18.317-72.493 4.449-72.493 4.449Z"/><path fill="#2E4ECC" d="M146.768 127.272s20.331 10.308 40.81 7.564c20.554-2.67-2.152-20.912-6.752-30.33-3.265-6.749.594-24.398 21.815-21.21 21.221 3.264 39.177 30.183 42.145 49.834 2.82 18.688-12.317 45.83-64.702 53.394l-36.432-40.713 3.116-18.539Z"/><path fill="#fff" d="M195.963 150.631a6.3 6.3 0 0 1-6.307-6.303 6.3 6.3 0 0 1 6.307-6.303 6.3 6.3 0 0 1 6.307 6.303c-.074 3.485-2.82 6.303-6.307 6.303Zm0-11.865c-3.042 0-5.565 2.522-5.565 5.562 0 3.041 2.523 5.562 5.565 5.562 3.042 0 5.565-2.521 5.565-5.562 0-3.04-2.523-5.562-5.565-5.562Zm-3.191 33.964c-3.116 0-5.713-2.521-5.713-5.71 0-3.114 2.523-5.71 5.713-5.71 3.117 0 5.714 2.521 5.714 5.71s-2.523 5.71-5.714 5.71Zm0-10.604a4.97 4.97 0 0 0-4.971 4.968 4.97 4.97 0 0 0 4.971 4.969 4.97 4.97 0 0 0 4.972-4.969 4.97 4.97 0 0 0-4.972-4.968Zm25.525-15.054a5.984 5.984 0 0 1-6.01-6.007 5.984 5.984 0 0 1 6.01-6.007c3.339 0 6.01 2.67 6.01 6.007.075 3.263-2.671 6.007-6.01 6.007Zm0-11.346a5.318 5.318 0 0 0-5.342 5.339 5.318 5.318 0 0 0 5.342 5.34 5.32 5.32 0 0 0 5.343-5.34 5.32 5.32 0 0 0-5.343-5.339Zm9.053-14.164c-2.152 0-3.933-1.78-3.933-3.931 0-2.15 1.781-3.93 3.933-3.93 2.151 0 3.932 1.78 3.932 3.93.074 2.151-1.706 3.931-3.932 3.931Zm0-7.268c-1.781 0-3.265 1.484-3.265 3.263 0 1.78 1.484 3.263 3.265 3.263 1.78 0 3.264-1.483 3.264-3.263a3.245 3.245 0 0 0-3.264-3.263Zm-18.625 13.794c-1.409 0-2.597-1.187-2.597-2.596s1.188-2.595 2.597-2.595c1.41 0 2.597 1.186 2.597 2.595-.074 1.409-1.187 2.596-2.597 2.596Zm0-4.45a1.837 1.837 0 0 0-1.855 1.854c0 1.038.817 1.854 1.855 1.854a1.837 1.837 0 0 0 1.855-1.854c0-1.038-.89-1.854-1.855-1.854Zm-4.6-27.141c-1.41 0-2.597-1.187-2.597-2.596s1.187-2.595 2.597-2.595 2.597 1.186 2.597 2.595c0 1.41-1.187 2.596-2.597 2.596Zm0-4.45a1.836 1.836 0 0 0-1.855 1.854c0 1.038.816 1.854 1.855 1.854a1.836 1.836 0 0 0 1.855-1.854 1.836 1.836 0 0 0-1.855-1.854Zm6.826 24.175a5.983 5.983 0 0 1-6.01-6.006c0-3.337 2.745-6.007 6.01-6.007 3.339 0 6.01 2.744 6.01 6.007 0 3.337-2.745 6.006-6.01 6.006Zm0-11.346a5.318 5.318 0 0 0-5.342 5.34 5.318 5.318 0 0 0 5.342 5.339 5.32 5.32 0 0 0 5.343-5.339c-.075-2.967-2.449-5.34-5.343-5.34Zm17.289-5.636c-1.039.816-2.3 1.335-3.71 1.335-3.265 0-5.862-2.67-5.862-5.858 0-1.26.445-2.522 1.113-3.486-.222-.148-.371-.296-.593-.444-.817 1.112-1.262 2.447-1.262 3.93 0 3.633 2.968 6.6 6.604 6.6 1.558 0 3.042-.519 4.155-1.483-.148-.223-.297-.371-.445-.594Zm-43.036 11.643a7.884 7.884 0 0 1 4.823-1.631c4.452 0 8.014 3.633 8.014 8.009 0 2.744-1.41 5.117-3.488 6.6.149.222.223.445.297.667a8.783 8.783 0 0 0 3.858-7.267c0-4.821-3.932-8.751-8.755-8.751-2.004 0-3.784.668-5.268 1.78.222.222.371.445.519.593Zm12.54-23.953c2.151 0 3.858-1.631 4.081-3.708-.223 0-.52-.074-.742-.074-.149 1.706-1.633 3.04-3.414 3.04-1.78 0-3.19-1.334-3.413-3.04-.222 0-.445.075-.742.075.445 2.15 2.152 3.707 4.23 3.707Zm-12.837 15.277a6.649 6.649 0 0 0 6.678-6.674 6.648 6.648 0 0 0-6.678-6.675c-.519 0-.965.075-1.41.149-.222.296-.519.667-.742.964a5.326 5.326 0 0 1 2.152-.445c3.265 0 5.936 2.67 5.936 5.932 0 3.263-2.671 5.933-5.936 5.933a5.859 5.859 0 0 1-5.046-2.818v1.187c1.188 1.483 3.043 2.447 5.046 2.447Zm-3.636 78.903c-1.706 0-3.339.742-4.452 1.854l.446.519a5.371 5.371 0 0 1 3.932-1.705c2.449 0 4.452 1.631 5.194 3.782.223-.075.445-.075.668-.149-.668-2.521-2.968-4.301-5.788-4.301Zm39.994-17.723a8.959 8.959 0 0 0-8.978 8.973c0 1.779.52 3.485 1.484 4.894.223-.074.445-.223.668-.297a8.209 8.209 0 0 1-1.41-4.597c0-4.524 3.71-8.232 8.236-8.232 3.117 0 5.788 1.706 7.198 4.227.222-.148.371-.297.519-.445-1.484-2.744-4.378-4.523-7.717-4.523Zm21.147-24.917a6.3 6.3 0 0 1-6.307-6.304 6.3 6.3 0 0 1 6.307-6.303c.223 0 .52 0 .742.074-.074-.222-.148-.519-.222-.742h-.52a6.965 6.965 0 0 0-6.974 6.971 6.965 6.965 0 0 0 6.974 6.971c.965 0 1.855-.222 2.746-.519v-.816c-.816.371-1.781.668-2.746.668Z"/><path stroke="#16004D" stroke-linecap="round" stroke-miterlimit="10" d="M203.086 133.204s8.904 6.081 18.031 8.529"/><path stroke="#16004D" stroke-linecap="round" stroke-miterlimit="10" d="M239.963 117.557c2.449 5.34 4.081 10.753 4.823 15.647 2.82 18.688-12.317 45.83-64.702 53.394m7.568-51.762c20.553-2.67-2.152-20.912-6.752-30.33-3.265-6.749.593-24.398 21.814-21.21"/><path fill="#F6C8A6" d="M159.975 66.611s29.977 19.874 30.051 22.915c.074 3.04-2.745 7.935-7.791 9.418-5.046 1.483-28.344-8.973-28.344-8.973s1.706-16.018 6.084-23.36Z"/><path fill="#16004D" d="M117.755 137.135c11.557 0 20.925-9.363 20.925-20.913 0-11.549-9.368-20.912-20.925-20.912-11.555 0-20.924 9.363-20.924 20.912 0 11.55 9.369 20.913 20.924 20.913Z"/><path fill="#2E4ECC" d="M69.303 194.31c20.183 9.566 21.37 27.735 18.922 34.038-2.45 6.304-4.972 10.753-22.558 11.198-17.585.445-28.938-8.306-29.531-26.326-.594-18.02 16.324-40.193 33.316-51.836 16.992-11.642 44.891-33.815 74.2-32.258 29.309 1.557 62.773 28.328 62.773 28.328l-106.254 39.748s-13.43 7.49-14.692 10.531"/><path fill="#fff" d="M83.847 192.679a3.831 3.831 0 0 0-3.859-3.857 3.831 3.831 0 0 0-3.858 3.857 3.831 3.831 0 0 0 3.858 3.856c2.152 0 3.859-1.78 3.859-3.856Zm-7.05 0c0-1.706 1.41-3.189 3.191-3.189s3.19 1.409 3.19 3.189c0 1.705-1.409 3.188-3.19 3.188-1.78 0-3.19-1.483-3.19-3.188Zm-14.987-.297c3.19 0 5.712-2.596 5.712-5.71 0-3.189-2.597-5.71-5.713-5.71-3.19 0-5.713 2.595-5.713 5.71 0 3.114 2.597 5.71 5.713 5.71Zm0-10.753c2.745 0 5.045 2.225 5.045 5.043a5.003 5.003 0 0 1-5.046 5.043c-2.745 0-5.045-2.225-5.045-5.043s2.3-5.043 5.045-5.043Zm12.76-6.007a2.153 2.153 0 0 0 4.304 0c0-1.186-.964-2.15-2.151-2.15-1.188.074-2.152.964-2.152 2.15Zm3.488 0c0 .816-.668 1.409-1.41 1.409a1.408 1.408 0 1 1 0-2.818c.817 0 1.41.668 1.41 1.409Zm-3.488 35.967a4.147 4.147 0 0 0-4.154-4.153 4.147 4.147 0 0 0-4.155 4.153 4.147 4.147 0 0 0 4.155 4.153c2.3 0 4.155-1.928 4.155-4.153ZM70.417 215a3.482 3.482 0 0 1-3.487-3.485 3.483 3.483 0 0 1 3.487-3.486 3.483 3.483 0 0 1 3.487 3.486A3.482 3.482 0 0 1 70.416 215Zm2.893 12.31a2.47 2.47 0 0 0-2.449 2.447 2.47 2.47 0 0 0 2.449 2.448 2.47 2.47 0 0 0 2.448-2.448c0-1.335-1.039-2.447-2.448-2.447Zm0 4.227c-.965 0-1.78-.816-1.78-1.78 0-.964.815-1.779 1.78-1.779.964 0 1.78.815 1.78 1.779s-.816 1.78-1.78 1.78Zm-16.027-14.016a4.812 4.812 0 0 0-4.823-4.82 4.812 4.812 0 0 0-4.823 4.82 4.812 4.812 0 0 0 4.823 4.821 4.812 4.812 0 0 0 4.823-4.821Zm-8.904 0a4.067 4.067 0 0 1 4.08-4.078c2.3 0 4.082 1.854 4.082 4.078a4.068 4.068 0 0 1-4.081 4.079c-2.226 0-4.081-1.854-4.081-4.079Zm38.138-58.806c0 3.633-2.968 6.6-6.604 6.6-3.635 0-6.603-2.967-6.603-6.526l-.668.445c.297 3.782 3.413 6.748 7.271 6.748 4.007 0 7.346-3.263 7.346-7.342 0-2.966-1.78-5.487-4.303-6.674l-.668.445c2.448 1.038 4.23 3.486 4.23 6.304Zm2.672 64.516v-.815c-.89.593-2.004.964-3.117.964-3.19 0-5.713-2.596-5.713-5.71 0-3.189 2.597-5.71 5.713-5.71.371 0 .668 0 1.039.074-.074-.223-.223-.519-.297-.742-.222 0-.445-.074-.668-.074a6.458 6.458 0 0 0-6.455 6.452 6.458 6.458 0 0 0 6.455 6.451 7.544 7.544 0 0 0 3.043-.89Zm-22.335 16.241v-.593c0-4.079-3.339-7.416-7.42-7.416-3.636 0-6.678 2.67-7.271 6.155l.667.222c.52-3.188 3.265-5.635 6.604-5.635a6.648 6.648 0 0 1 6.678 6.674v.593c.297.074.52.074.742 0Zm-21.592-5.636c.594-1.112.965-2.373.965-3.708a7.471 7.471 0 0 0-7.494-7.49c-.371 0-.668 0-.965.074l.223.668c.222 0 .52-.074.742-.074a6.806 6.806 0 0 1 6.826 6.822 6.86 6.86 0 0 1-.816 3.263c.074.148.297.297.52.445Zm2.968-38.488c0-2.892-2.151-5.339-4.897-5.784-.148.222-.222.445-.37.667 2.596.297 4.6 2.522 4.6 5.117a5.16 5.16 0 0 1-5.194 5.191c-1.41 0-2.597-.519-3.562-1.409-.074.223-.148.519-.223.742a5.821 5.821 0 0 0 3.785 1.409c3.19 0 5.861-2.67 5.861-5.933Z"/><path stroke="#16004D" stroke-linecap="round" stroke-miterlimit="10" d="M69.303 194.31c20.183 9.566 21.37 27.735 18.922 34.038-2.45 6.304-4.972 10.753-22.557 11.198-17.586.445-28.939-8.306-29.532-26.326-.445-16.018 12.836-35.299 27.676-47.535"/><path stroke="#16004D" stroke-linecap="round" stroke-miterlimit="10" d="M100.245 197.276s-13.43 7.49-14.692 10.531"/><path fill="#2E4ECC" d="M188.172 200.762v-25.807s-10.314-37.004-37.545-41.528c-27.232-4.524-39.994 8.602-47.34 16.092-7.42 7.49-2.671 49.834-2.449 52.133.223 2.299 3.117 19.132 4.081 21.728.965 2.521 2.449 5.042 4.452 6.6 2.004 1.557 19.441 4.301 35.542 4.82 16.102.519 27.974-6.155 31.684-7.638 3.71-1.483 6.678-2.967 9.052-7.861 2.226-4.968 2.523-18.539 2.523-18.539Z"/><path fill="#fff" d="M101.432 166.205a6.142 6.142 0 0 1-6.159-6.156 6.142 6.142 0 0 1 6.159-6.155 6.142 6.142 0 0 1 6.159 6.155c0 3.412-2.82 6.156-6.159 6.156Zm0-11.569a5.477 5.477 0 0 0-5.49 5.488 5.477 5.477 0 0 0 5.49 5.487 5.477 5.477 0 0 0 5.491-5.487c-.074-3.041-2.523-5.488-5.491-5.488Zm29.086 8.973a2.47 2.47 0 0 1-2.448-2.447 2.47 2.47 0 0 1 2.448-2.447 2.47 2.47 0 0 1 2.449 2.447 2.47 2.47 0 0 1-2.449 2.447Zm0-4.227c-.964 0-1.706.742-1.706 1.706s.742 1.705 1.706 1.705c.965 0 1.707-.741 1.707-1.705 0-.89-.742-1.706-1.707-1.706Zm-5.342 39.155a8.453 8.453 0 0 1-8.459-8.454 8.453 8.453 0 0 1 8.459-8.454 8.453 8.453 0 0 1 8.459 8.454 8.453 8.453 0 0 1-8.459 8.454Zm0-16.24a7.787 7.787 0 1 0 0 15.573 7.787 7.787 0 1 0 0-15.573Zm2.746 37.523a3.404 3.404 0 0 1-3.414-3.411c0-1.928 1.484-3.411 3.414-3.411a3.403 3.403 0 0 1 3.413 3.411 3.403 3.403 0 0 1-3.413 3.411Zm0-6.081a2.66 2.66 0 0 0-2.672 2.67 2.66 2.66 0 0 0 2.672 2.67 2.66 2.66 0 0 0 2.671-2.67c0-1.409-1.187-2.67-2.671-2.67Zm31.089-1.854c-4.081 0-7.42-3.337-7.42-7.415 0-4.079 3.339-7.416 7.42-7.416 4.081 0 7.42 3.337 7.42 7.416 0 4.078-3.339 7.415-7.42 7.415Zm0-14.015a6.648 6.648 0 0 0-6.678 6.674 6.648 6.648 0 0 0 6.678 6.674 6.648 6.648 0 0 0 6.678-6.674 6.648 6.648 0 0 0-6.678-6.674Zm16.77 24.842c-1.41 0-2.597-1.186-2.597-2.595 0-1.409 1.187-2.596 2.597-2.596 1.409 0 2.597 1.187 2.597 2.596s-1.188 2.595-2.597 2.595Zm0-4.523a1.837 1.837 0 0 0-1.855 1.854c0 1.038.816 1.854 1.855 1.854a1.837 1.837 0 0 0 1.855-1.854c.074-1.038-.817-1.854-1.855-1.854Zm-3.043-32.926a3.482 3.482 0 0 1-3.487-3.485 3.482 3.482 0 0 1 3.487-3.486 3.482 3.482 0 0 1 3.488 3.486 3.482 3.482 0 0 1-3.488 3.485Zm0-6.303a2.817 2.817 0 1 0 0 5.635 2.817 2.817 0 1 0 0-5.635Zm-26.563 6.451c-1.113 0-2.078-.964-2.078-2.076 0-1.113.965-2.077 2.078-2.077s2.077.964 2.077 2.077c0 1.112-.964 2.076-2.077 2.076Zm0-3.485a1.33 1.33 0 0 0-1.336 1.335 1.33 1.33 0 0 0 1.336 1.335 1.33 1.33 0 0 0 1.335-1.335c0-.668-.593-1.335-1.335-1.335Zm-31.535-6.6c-1.113 0-2.078-.964-2.078-2.077 0-1.112.965-2.076 2.078-2.076s2.077.964 2.077 2.076c0 1.113-.964 2.077-2.077 2.077Zm0-3.486a1.33 1.33 0 0 0-1.336 1.335 1.33 1.33 0 0 0 1.336 1.335c.742 0 1.335-.593 1.335-1.335 0-.667-.593-1.335-1.335-1.335Zm39.623-1.038a8.453 8.453 0 0 1-8.459-8.454 8.453 8.453 0 0 1 8.459-8.454 8.452 8.452 0 0 1 8.458 8.454c-.074 4.672-3.858 8.454-8.458 8.454Zm0-16.166c-4.23 0-7.717 3.485-7.717 7.712s3.487 7.713 7.717 7.713c4.229 0 7.716-3.486 7.716-7.713s-3.487-7.712-7.716-7.712Zm-11.353-11.05c-2.523 0-4.6-2.076-4.6-4.597 0-2.522 2.077-4.598 4.6-4.598 2.523 0 4.6 2.076 4.6 4.598.075 2.521-2.003 4.597-4.6 4.597Zm0-8.528c-2.152 0-3.933 1.78-3.933 3.931 0 2.15 1.781 3.93 3.933 3.93s3.933-1.78 3.933-3.93c0-2.151-1.781-3.931-3.933-3.931Zm36.803 25.362c-1.781 0-3.265-1.483-3.265-3.263 0-1.779 1.484-3.263 3.265-3.263 1.781 0 3.265 1.484 3.265 3.263a3.245 3.245 0 0 1-3.265 3.263Zm0-5.784a2.501 2.501 0 0 0-2.523 2.521 2.502 2.502 0 0 0 2.523 2.522 2.502 2.502 0 0 0 2.523-2.522 2.501 2.501 0 0 0-2.523-2.521Zm-80.655 35.818c-3.933 0-7.198-3.189-7.198-7.193 0-3.931 3.191-7.194 7.198-7.194 3.932 0 7.197 3.189 7.197 7.194 0 3.93-3.19 7.193-7.197 7.193Zm0-13.719a6.458 6.458 0 0 0-6.456 6.452 6.458 6.458 0 0 0 6.456 6.451 6.458 6.458 0 0 0 6.455-6.451c.074-3.486-2.819-6.452-6.455-6.452Zm18.995-28.996c4.823 0 8.756-3.93 8.756-8.75a8.786 8.786 0 0 0-3.859-7.268c-.297.074-.593.149-.964.223 2.448 1.409 4.081 4.004 4.081 6.971 0 4.449-3.636 8.083-8.088 8.083-4.452 0-8.088-3.634-8.088-8.083 0-.964.148-1.854.445-2.744-.297.148-.593.222-.89.371-.223.741-.297 1.557-.297 2.373.074 4.894 4.081 8.824 8.904 8.824Zm69.896 57.843a7.123 7.123 0 0 1-7.123-7.119 7.123 7.123 0 0 1 7.123-7.119h.223v-.742h-.223a7.789 7.789 0 0 0-7.791 7.787 7.788 7.788 0 0 0 7.791 7.786c-.074-.148-.074-.371 0-.593Zm-29.902 28.031c.148-.741.297-1.409.297-2.224a9.118 9.118 0 0 0-9.127-9.122 9.118 9.118 0 0 0-9.127 9.122c0 1.112.223 2.15.594 3.189.223 0 .519 0 .742.074-.445-.964-.668-2.077-.668-3.189 0-4.598 3.784-8.38 8.385-8.38 4.6 0 8.384 3.782 8.384 8.38a8.34 8.34 0 0 1-.371 2.373c.371-.148.668-.223.891-.223Zm-39.772-6.303c-2.597 0-4.823 1.483-5.936 3.708.223.074.446.148.668.148.965-1.854 2.968-3.188 5.194-3.188 2.968 0 5.417 2.224 5.788 5.042.222 0 .519.074.742.074-.297-3.263-3.117-5.784-6.456-5.784Zm-6.677-15.054c0-4.004-3.265-7.267-7.272-7.267a7.47 7.47 0 0 0-2.894.593c.074.222.074.445.149.742.816-.371 1.78-.668 2.819-.668 3.636 0 6.53 2.966 6.53 6.526 0 3.634-2.968 6.526-6.53 6.526h-.519c.074.222.074.519.148.741h.371c3.933.075 7.198-3.188 7.198-7.193Zm57.579-65.11c5.936 0 10.833-4.524 11.352-10.308-.222 0-.445-.074-.667-.074-.52 5.413-5.12 9.64-10.685 9.64-5.936 0-10.685-4.82-10.685-10.678 0-1.335.297-2.596.742-3.782l-.668-.223c-.519 1.261-.742 2.596-.742 4.079 0 6.229 5.12 11.346 11.353 11.346Z"/><path stroke="#16004D" stroke-linecap="round" stroke-miterlimit="10" d="M99.874 189.119c.965 22.692 4.6 36.263 7.717 39.748.519.594 2.597 1.558 2.597 1.558s14.84 4.004 33.538 4.301a77.76 77.76 0 0 0 13.95-1.038c5.491-.964 10.314-2.967 14.543-4.672 5.936-2.373 10.462-4.672 11.946-7.416 4.601-8.231 3.859-30.998 3.859-30.998v-15.573"/><path fill="#F6C8A6" d="M115.011 247.036c2.077-1.557-5.046-8.454-6.975-11.049 2.152 2.298 7.791 9.566 9.869 7.786 2.522-2.225-7.569-12.829-7.569-12.829 3.191 2.669 7.346 8.38 9.275 9.121.816.297 1.929 0 1.633-2.002-.149-1.409-1.559-3.115-2.746-4.598-5.416-6.896-20.108-14.238-26.86-17.353-1.484-.667-2.226-.741-4.304-1.334-4.377-1.261-7.568 2.743-9.349 5.784-1.93 3.337-2.226 8.083.223 10.975 5.49 6.526 11.5 7.787 15.656 9.196 11.056 3.707 14.543 12.013 17.659 9.937 1.855-1.187-3.71-8.825-6.307-11.272 2.746 2.15 6.975 9.714 9.795 7.638Z"/><path fill="#EF8576" d="M109.817 244.515c-1.929-2.893-4.23-5.636-6.827-8.009-.296-.223-.667.148-.371.37a42.567 42.567 0 0 1 6.753 7.861c.222.371.667.074.445-.222Zm3.265-3.189c-2.523-2.966-5.194-5.859-8.014-8.528-.223-.223-.668.148-.371.371 2.82 2.669 5.491 5.561 8.014 8.528.222.296.593-.075.371-.371Zm2.151-5.414a34.182 34.182 0 0 0-8.755-8.528c-.297-.222-.594.297-.297.445 3.339 2.225 6.233 5.043 8.607 8.306.149.371.594.074.445-.223Z"/><path fill="#F6C8A6" d="M127.031 91.528a9 9 0 0 1 5.194 1.631V87.82c0-8.454 6.084-15.35 13.43-15.35h11.13c7.42 0 13.43 6.896 13.43 15.35v17.28c0 8.454-6.084 15.35-13.43 15.35h-6.455v9.27c0 3.782-3.117 6.897-6.901 6.897h-4.452c-3.784 0-6.9-3.115-6.9-6.897v-21.654c0-.222 0-.445.074-.593a9.027 9.027 0 0 1-5.046 1.557c-4.897 0-8.904-3.93-8.904-8.825-.074-4.746 3.933-8.676 8.83-8.676Z"/><path stroke="#010001" stroke-linecap="round" stroke-miterlimit="10" d="M131.854 101.465s.371-6.007-5.714-5.34"/><path fill="#010001" d="M148.698 93.53c0 .964.816 1.78 1.781 1.78.964 0 1.78-.816 1.78-1.78 0-.964-.816-1.78-1.78-1.78-.965 0-1.781.742-1.781 1.78Zm16.323-.37c0 .815.668 1.557 1.559 1.557.816 0 1.558-.668 1.558-1.558s-.668-1.557-1.558-1.557c-.891 0-1.559.668-1.559 1.557Z"/><path fill="#EF8576" d="M139.274 102.726c0 3.411 2.82 6.229 6.233 6.229s6.233-2.818 6.233-6.229-2.82-6.23-6.233-6.23a6.22 6.22 0 0 0-6.233 6.23Zm29.828-4.746c.371 0 .742.074 1.113.148v6.452c0 .964 0 1.928-.223 2.818-.297.074-.593.074-.89.074-2.597 0-4.749-2.151-4.749-4.746 0-2.596 2.152-4.746 4.749-4.746Z"/><path fill="#010001" d="M146.917 89.6a19.732 19.732 0 0 1 3.932-1.557c.371-.075.223-.668-.148-.52-1.41.371-2.745.965-4.081 1.632-.297.148-.074.667.297.445Zm17.436-.52c1.41-.073 2.82 0 4.229.223.149 0 .297 0 .371-.222.075-.148-.074-.297-.222-.37a21.68 21.68 0 0 0-4.378-.223c-.371.074-.371.667 0 .593Zm-5.564 2.003c.816 2.373 1.929 4.598 3.339 6.6 0-.148.074-.222.074-.37-1.039.444-2.152.74-3.265.963-.371.075-.223.594.148.52 1.188-.223 2.301-.52 3.414-1.039.148-.074.148-.296.074-.37-1.41-2.003-2.523-4.153-3.265-6.452-.074-.297-.594-.148-.519.148Z"/><path stroke="#010001" stroke-linecap="round" stroke-miterlimit="10" d="M155.301 104.506s3.042-.297 6.901 1.854"/><path fill="#16004D" d="M127.031 67.13c9.052-9.121 22.112-9.863 34.355-2.521 12.168 7.342 11.946 19.28 11.204 20.987-.446 1.038-1.039 1.78-2.3 2.002-1.113.148-3.043-.074-6.382-.816-9.72-2.076-15.878-10.53-15.878-10.53s.816 1.483-2.523 8.528c-2.449 5.265-8.83 8.528-12.021 9.863-.964-1.335-3.413-3.19-6.307-3.337-2.077-.075-4.452 1.112-6.01 2.299-2.523-4.598-2.448-18.095 5.862-26.475Z"/><path fill="#fff" d="m132.819 137.654 16.324-.148c2.745 0 4.897-2.299 4.897-4.969v-2.892c0-2.744-2.3-4.894-4.972-4.894l-16.324.148c-2.745 0-4.897 2.299-4.897 4.968v2.893c0 2.743 2.226 4.968 4.972 4.894Z"/><path stroke="#2E4ECC" stroke-miterlimit="10" d="m132.819 137.654 16.324-.148c2.745 0 4.897-2.299 4.897-4.969v-2.892c0-2.744-2.3-4.894-4.972-4.894l-16.324.148c-2.745 0-4.897 2.299-4.897 4.968v2.893c0 2.743 2.226 4.968 4.972 4.894Zm-2.449-12.236v11.717m2.968-11.865v12.384m3.042-12.607v12.607m2.968-12.607v12.533m3.043-12.533v12.533m2.967-12.533v12.459m3.042-12.755v12.755m2.968-12.459v12.088"/><path fill="#fff" d="m202.714 265.501-9.646 12.533-26.489 34.557c-33.835-1.631-34.206-18.02-29.012-31.294 7.717-19.726 34.503-43.901 56.985-57.398 18.996-11.42 39.846-14.535 45.93-15.202l-3.858 25.361-33.91 31.443Z"/><path fill="#2E4ECC" d="m149.216 273.213-.222-.296c-.817-1.261-.52-2.966.742-3.782l9.423-6.378c1.261-.815 2.968-.519 3.784.742l.223.296c.816 1.261.519 2.967-.742 3.782L153 273.955c-1.261.816-2.968.519-3.784-.742Zm32.574-.741-.223-.297c-.816-1.26-.519-2.966.742-3.782l9.424-6.377c1.261-.816 2.968-.519 3.784.741l.223.297c.816 1.261.519 2.966-.742 3.782l-9.424 6.377c-1.261.816-2.968.52-3.784-.741Zm-4.304-16.611-.222-.297c-.817-1.261-.52-2.966.742-3.782l9.423-6.378c1.261-.815 2.968-.519 3.784.742l.223.297c.816 1.26.519 2.966-.742 3.782l-9.424 6.377c-1.187.816-2.893.519-3.784-.741Zm-19.96-2.596c0 .074.075.074.075.149a2.881 2.881 0 0 0 4.006.815l9.201-6.155a2.877 2.877 0 0 0 .816-4.004c-.667-.964-1.855-1.409-2.893-1.261-3.933 3.337-7.643 6.897-11.205 10.456Zm33.465-17.13-.223-.297c-.816-1.26-.519-2.966.742-3.782l9.423-6.377c1.262-.816 2.968-.519 3.785.741l.222.297c.816 1.261.52 2.966-.742 3.782l-9.423 6.377c-1.262.816-2.894.52-3.784-.741Zm23.595-9.047-.222-.297c-.816-1.261-.52-2.966.742-3.782l9.423-6.378c1.262-.815 2.968-.519 3.784.742l.223.297c.816 1.26.519 2.966-.742 3.782l-9.423 6.377a2.67 2.67 0 0 1-3.785-.741Z"/><path stroke="#0F110E" stroke-linecap="round" stroke-miterlimit="10" d="M240.482 208.697c-6.01.667-26.934 3.782-45.93 15.202-22.482 13.497-49.268 37.672-56.985 57.398-5.194 13.274-4.823 29.663 29.012 31.294l26.489-34.557 9.646-12.533"/><path fill="#fff" d="m203.159 256.676-.816 23.434v32.629h91.86l2.077-7.564c7.198-12.013 20.034-50.204 8.756-74.528-11.798-25.287-54.092-22.395-54.092-22.395L237.737 215l-14.024 17.279-20.183 15.499-.371 8.898Z"/><path fill="#2E4ECC" d="M211.693 276.031h-.371c-1.484 0-2.746-1.26-2.746-2.743v-11.346c0-1.484 1.262-2.744 2.746-2.744h.371c1.484 0 2.745 1.26 2.745 2.744v11.346c0 1.557-1.187 2.743-2.745 2.743Zm12.91 13.571h-.371c-1.484 0-2.745-1.26-2.745-2.744v-11.42c0-1.483 1.261-2.744 2.745-2.744h.371c1.484 0 2.746 1.261 2.746 2.744v11.346c0 1.558-1.262 2.818-2.746 2.818Zm13.134-10.827h-.371c-1.484 0-2.745-1.26-2.745-2.744v-11.346c0-1.483 1.261-2.743 2.745-2.743h.371c1.484 0 2.745 1.26 2.745 2.743v11.346a2.738 2.738 0 0 1-2.745 2.744Zm-10.24-20.319h-.371c-1.484 0-2.745-1.26-2.745-2.744v-11.346c0-1.483 1.261-2.744 2.745-2.744h.371c1.484 0 2.746 1.261 2.746 2.744v11.346c0 1.558-1.188 2.744-2.746 2.744Zm14.543-14.98h-.371c-1.484 0-2.745-1.26-2.745-2.743v-11.346c0-1.484 1.261-2.744 2.745-2.744h.371c1.484 0 2.746 1.26 2.746 2.744v11.346a2.738 2.738 0 0 1-2.746 2.743Zm30.274-4.449h-.371c-1.484 0-2.745-1.261-2.745-2.744v-11.346c0-1.483 1.261-2.744 2.745-2.744h.371c1.484 0 2.746 1.261 2.746 2.744v11.346a2.74 2.74 0 0 1-2.746 2.744Zm28.122 14.386h-.371c-1.484 0-2.746-1.26-2.746-2.743v-11.346c0-1.484 1.262-2.744 2.746-2.744h.371c1.484 0 2.745 1.26 2.745 2.744v11.346c0 1.557-1.187 2.743-2.745 2.743Zm-11.65 7.045h-.371c-1.484 0-2.745-1.26-2.745-2.743v-11.346c0-1.484 1.261-2.744 2.745-2.744h.371c1.484 0 2.746 1.26 2.746 2.744v11.346a2.738 2.738 0 0 1-2.746 2.743Zm15.36-29.737c.297 0 .593-.074.816-.148-1.039-2.225-2.3-4.153-3.71-6.007v3.189c0 1.632 1.261 2.966 2.894 2.966Zm-20.183-17.797v8.898a2.897 2.897 0 0 0 2.894 2.893 2.897 2.897 0 0 0 2.894-2.893v-6.303c-1.855-1.038-3.784-1.854-5.788-2.595Zm2.746 23.285c-.446-.964-1.484-1.631-2.597-1.631a2.896 2.896 0 0 0-2.894 2.892l.148 7.49 5.343-8.751Zm-83.104 9.566-.223-.296c-.816-1.261-.519-2.967.742-3.782l9.424-6.378c1.261-.816 2.968-.519 3.784.742l.222.296c.817 1.261.52 2.967-.742 3.782l-9.423 6.378c-1.261.816-2.968.519-3.784-.742Z"/><path stroke="#0F110E" stroke-linecap="round" stroke-miterlimit="10" d="m203.159 256.676-.816 23.434v32.629h91.86l2.077-7.564c7.198-12.013 20.034-50.204 8.756-74.528-11.798-25.287-54.092-22.395-54.092-22.395"/><path stroke="#0F110E" stroke-linecap="round" stroke-miterlimit="10" d="M275.208 255.49s8.756-15.202 13.579-22.173"/><path fill="#6FBBEF" stroke="#0F110E" stroke-miterlimit="10" d="M253.987 223.899c10.244 0 18.55-3.985 18.55-8.899s-8.306-8.899-18.55-8.899c-10.245 0-18.55 3.985-18.55 8.899s8.305 8.899 18.55 8.899Z"/><path fill="#A66957" d="M255.323 217.521h-4.081a8.136 8.136 0 0 1-8.162-8.157v-5.933a8.136 8.136 0 0 1 8.162-8.157h4.081a8.136 8.136 0 0 1 8.162 8.157v5.933c0 4.449-3.636 8.157-8.162 8.157Z"/><path fill="#161522" d="M233.285 188.822c-.074-.296-6.455-10.159-6.9-18.687-.371-8.528 3.042-24.62 27.454-25.436 8.533-.297 26.712.816 26.638 21.357-.074 20.69-9.72 32.481-11.872 33.593-2.152 1.113-29.532 6.23-35.32-10.827Z"/><path fill="#A66957" d="M282.851 187.488c-.075 3.263-2.746 5.784-6.011 5.71-3.264-.074-5.861-2.744-5.787-6.007.074-3.263 2.745-5.784 6.01-5.71 3.265.074 5.862 2.818 5.788 6.007Z"/><path stroke="#7F4040" stroke-linecap="round" stroke-miterlimit="10" d="M273.724 188.081s-.149-4.005 3.932-3.485"/><path fill="#A66957" d="M224.085 187.191c-.075 3.263 2.522 5.933 5.787 6.007 3.265.074 5.936-2.522 6.01-5.71.075-3.263-2.522-5.933-5.787-6.007-3.265-.074-5.936 2.447-6.01 5.71Z"/><path stroke="#7F4040" stroke-linecap="round" stroke-miterlimit="10" d="M233.137 188.155s.371-4.004-3.784-3.634"/><path fill="#A66957" d="M272.091 191.863c0 7.193-5.936 13.126-13.133 13.126h-11.056c-7.197 0-13.133-5.933-13.133-13.126v-23.211c0-7.194 5.936-13.126 13.133-13.126h11.056c7.197 0 13.133 5.932 13.133 13.126v23.211Z"/><path stroke="#7F4040" stroke-linecap="round" stroke-miterlimit="10" d="M264.968 203.506c-1.781.964-3.858 1.483-6.01 1.483h-11.056c-2.374 0-4.674-.668-6.604-1.78"/><path fill="#9E5656" d="M244.861 188.6c-.223 2.596-2.449 4.524-5.046 4.301-2.597-.222-4.526-2.447-4.303-5.043.222-2.595 2.448-4.523 5.045-4.301 2.597.149 4.526 2.448 4.304 5.043Zm25.747 0c-.223 2.596-2.449 4.524-5.046 4.301-2.597-.222-4.526-2.447-4.303-5.043.222-2.595 2.448-4.523 5.045-4.301 2.597.223 4.526 2.448 4.304 5.043Z"/><path stroke="#7F4040" stroke-linecap="round" stroke-miterlimit="10" d="M253.245 177.551c-.594 2.595-1.188 5.265-1.781 7.934 1.187.075 2.3.075 3.487.149"/><path fill="#161522" d="M243.599 179.924c0 .964-.742 1.779-1.706 1.779-.965 0-1.781-.741-1.781-1.705 0-.964.742-1.78 1.706-1.78.965 0 1.781.742 1.781 1.706Zm23.521 0c0 .964-.742 1.779-1.706 1.779-.965 0-1.781-.741-1.781-1.705 0-.964.742-1.78 1.706-1.78.965 0 1.707.742 1.781 1.706Z"/><path fill="#161522" d="M239.37 178.44c1.632-.074 3.265-.222 4.897-.296.445 0 .89-.371.816-.816 0-.445-.371-.89-.816-.816-1.632.075-3.265.223-4.897.297-.445 0-.891.371-.816.816 0 .371.371.815.816.815Zm23.298-1.334c1.781.445 3.487.889 5.268 1.334.445.075.891-.148 1.039-.593.074-.445-.148-.89-.594-1.038-1.78-.445-3.487-.89-5.268-1.335-.445-.074-.89.148-1.039.593-.148.445.075.89.594 1.039Z"/><path stroke="#7F4040" stroke-linecap="round" stroke-miterlimit="10" d="M248.496 194.681s3.413-2.373 7.791-2.447"/><path fill="#161522" d="M263.04 144.254c-3.042-.964-5.788-1.335-7.494-1.409-5.64-.148-24.486 1.038-28.716 13.793-4.303 12.755 2.671 24.62 2.671 24.62l-.964-4.227c1.706 1.929 5.862 5.34 5.862 5.34l2.3-6.007s23.15-.074 24.263-12.31c.074-.445-.964 9.715 7.198 12.384 0 0-2.004-4.746-.965-8.528 0 0 .148 7.416 5.342 9.27l.297 4.301s2.968-1.038 3.933-6.303l.371 5.042s6.158-6.229 3.932-19.132c-1.558-9.567-10.759-14.609-18.03-16.834Z"/><path fill="#A66957" d="M282.628 203.135s4.674-7.638 4.6-10.086c-.074-2.373-2.894-3.856-5.342 0-2.449 3.857-3.859 7.194-2.672 8.677 1.188 1.409 3.414 1.409 3.414 1.409Z"/><path stroke="#7F4040" stroke-linecap="round" stroke-miterlimit="10" d="M280.921 194.458s.891-1.779 2.375-2.892"/><path fill="#EB3341" stroke="#1F1F1F" stroke-miterlimit="10" stroke-width=".75" d="M268.975 211.663c-1.039-.593-1.41-1.854-.816-2.818l15.656-25.51c.594-.964 1.929-1.261 2.968-.668 1.039.594 1.558 2.003.965 2.967l-15.805 25.362c-.594.964-1.929 1.26-2.968.667Z"/><path fill="#fff" d="m283.963 183.112 3.933 2.225 3.71-10.53-7.643 8.305Z"/><path fill="#EB3341" d="m290.493 177.996 1.113-3.189-2.375 2.595 1.262.594Z"/><path stroke="#1F1F1F" stroke-linecap="round" stroke-linejoin="round" stroke-miterlimit="10" stroke-width=".75" d="m283.963 183.112 3.933 2.225 3.71-10.53-7.643 8.305Z"/><path fill="#A66957" d="m281.516 208.622-8.237 5.562s-7.345 4.969-7.716 6.897c-.446 1.928 2.597 16.24 2.597 16.24l-16.844 1.854s-1.855-20.319-1.706-22.395c.148-2.077 0-6.452 4.971-9.641 4.971-3.188 8.162-4.82 8.162-4.82s1.261-.371 1.187-1.631c-.074-1.261-.371-4.45.965-5.933 1.261-1.409 3.636-3.856 4.674-4.375 1.039-.519 1.93-.668 1.93-.668s.816.371 1.261 0c.445-.37 1.632-.741 1.632-.741s.817-.371 1.188.074 1.855-.371 2.226-.074c.371.222 1.335 1.112 2.374 3.708 1.039 2.595 3.636 10.307 3.784 11.42.149 1.112-.519 3.189-2.448 4.523Z"/><path stroke="#7F4040" stroke-linecap="round" stroke-miterlimit="10" d="M251.539 236.876s-3.487-19.206-1.039-25.139c2.449-5.932 17.066-11.494 17.066-11.494l.668-4.598"/><path stroke="#7F4040" stroke-linecap="round" stroke-miterlimit="10" d="M278.325 202.393s-3.636-12.013-6.381-12.606c-2.746-.594-7.791 5.487-8.014 6.97-.223 1.558 0 5.043 0 5.043"/><path stroke="#7F4040" stroke-linecap="round" stroke-miterlimit="10" d="M272.537 190.009s.816-1.112 2.375-1.112c1.558 0 6.01 11.791 6.01 11.791"/><path stroke="#7F4040" stroke-linecap="round" stroke-miterlimit="10" d="M275.579 189.342s1.929-.816 2.968 0c1.038.815 4.971 12.087 5.194 13.274.222 1.26 1.261 4.523-4.823 7.564"/><path fill="#fff" d="m247.754 231.685 27.825-4.078 24.412 58.806s4.378 17.872-21.221 19.875c-25.599 2.076-29.161-10.679-29.161-10.679l-1.855-63.924Z"/><path fill="#2E4ECC" d="M256.064 262.757h-.371c-1.484 0-2.745-1.26-2.745-2.744v-11.346c0-1.483 1.261-2.743 2.745-2.743h.371c1.484 0 2.746 1.26 2.746 2.743v11.346a2.738 2.738 0 0 1-2.746 2.744Zm19.145 7.638h-.371c-1.484 0-2.746-1.26-2.746-2.743v-11.346c0-1.484 1.262-2.744 2.746-2.744h.371c1.484 0 2.745 1.26 2.745 2.744v11.346a2.737 2.737 0 0 1-2.745 2.743Zm-11.502 18.54h-.297c-1.484 0-2.745-1.261-2.745-2.744v-11.346c0-1.483 1.261-2.744 2.745-2.744h.371c1.484 0 2.745 1.261 2.745 2.744v11.346c-.074 1.483-1.261 2.744-2.819 2.744Zm20.479 7.267h-.371c-1.484 0-2.746-1.26-2.746-2.744v-11.346c0-1.483 1.262-2.743 2.746-2.743h.371c1.484 0 2.745 1.26 2.745 2.743v11.346a2.738 2.738 0 0 1-2.745 2.744Zm-5.936-62.144c-.074.223-.074.52-.074.742v10.975a2.896 2.896 0 0 0 2.894 2.892c1.187 0 2.151-.667 2.597-1.631l-5.417-12.978Zm13.282 31.888v5.71a2.896 2.896 0 0 0 2.894 2.892c.222 0 .445 0 .667-.074l-3.561-8.528Zm5.862 20.319v11.05c0 .296.074.519.148.815 4.007-5.487 2.523-11.717 2.523-11.717l-1.113-2.595c-.965.371-1.558 1.335-1.558 2.447Zm-21.89 20.171v-5.191a2.896 2.896 0 0 0-2.893-2.892 2.896 2.896 0 0 0-2.894 2.892v5.117c1.781.074 3.71.148 5.787.074Zm-26.043-21.135h-.149l.297 10.234s.519 1.928 2.745 4.153c0-.149.075-.297.075-.519v-11.05c-.074-1.483-1.335-2.818-2.968-2.818Z"/><path stroke="#0F110E" stroke-miterlimit="10" d="m247.754 231.685 27.825-4.078 24.412 58.806s4.378 17.872-21.221 19.875c-25.599 2.076-29.161-10.679-29.161-10.679l-1.855-63.924Z"/><path fill="#6FBBEF" stroke="#0F110E" stroke-miterlimit="10" d="m275.579 227.533-27.825 4.078.371 11.717c6.604-.89 23.967-3.189 32.277-4.227l-4.823-11.568Z"/><path fill="#0F110E" d="M251.019 243.031c.223 0 .52-.074.816-.074l-1.632-11.642-.816.148 1.632 11.568Zm3.785-12.384-.817.149 2.523 11.568c.223 0 .52-.074.816-.074l-2.522-11.643Zm4.749-.741-.817.148 2.82 11.643c.297 0 .519-.075.816-.075l-2.819-11.716Zm13.058-1.928 4.081 11.642c.297 0 .519-.074.816-.074l-4.155-11.643-.742.075Zm-9.052 1.334 3.487 11.569c.297 0 .52-.074.817-.074l-3.488-11.569-.816.074Zm5.268-.741-.816.148 3.71 11.643c.297 0 .52-.074.816-.074l-3.71-11.717Z"/><path fill="#A66957" d="M222.155 292.717s5.936-.519 10.907-1.706c4.972-1.186 11.353-3.633 11.353-3.633l-.52 22.914H218l4.155-17.575Z"/><path fill="#fff" d="M137.567 281.667c-5.194 13.275-4.823 29.218 29.012 30.924 33.835 1.631 56.095.148 56.095.148l1.707-27.586s-44.298-10.16-50.234-10.976l-36.58 7.49Z"/><path fill="#2E4ECC" d="M173.183 302.061v-.371c0-1.483 1.261-2.744 2.745-2.744h11.353c1.484 0 2.745 1.261 2.745 2.744v.371c0 1.483-1.261 2.743-2.745 2.743h-11.353a2.737 2.737 0 0 1-2.745-2.743Zm27.899-5.043v-.371c0-1.483 1.262-2.744 2.746-2.744h11.352c1.484 0 2.746 1.261 2.746 2.744v.371c0 1.483-1.262 2.744-2.746 2.744h-11.352a2.74 2.74 0 0 1-2.746-2.744Zm-47.043-12.755v-.371c0-1.483 1.261-2.744 2.745-2.744h11.353c1.484 0 2.745 1.261 2.745 2.744v.371c0 1.483-1.261 2.744-2.745 2.744h-11.353c-1.484 0-2.745-1.261-2.745-2.744Zm-16.175 11.568v-.37c0-1.483 1.261-2.744 2.745-2.744h11.353c1.484 0 2.745 1.261 2.745 2.744v.37c0 1.484-1.261 2.744-2.745 2.744h-11.353a2.738 2.738 0 0 1-2.745-2.744Zm52.904-17.575a2.896 2.896 0 0 0-2.893 2.892 2.896 2.896 0 0 0 2.893 2.892h11.056a2.896 2.896 0 0 0 2.894-2.892c0-.148 0-.37-.074-.519a554.466 554.466 0 0 0-10.685-2.373h-3.191Zm12.688 31.443h-11.055a2.896 2.896 0 0 0-2.894 2.892c0 .222 0 .371.074.593 6.381.074 12.095 0 16.769-.074.074-.222.074-.222.074-.445-.074-1.705-1.409-2.966-2.968-2.966Zm-42.368-1.038h-11.056c-.668 0-1.335.222-1.781.667 4.007 1.483 9.127 2.596 15.657 3.115.074-.297.148-.519.148-.816-.074-1.632-1.336-2.966-2.968-2.966Z"/><path stroke="#0F110E" stroke-linecap="round" stroke-miterlimit="10" d="M137.567 281.297c-5.194 13.274-4.823 29.663 29.012 31.294 10.165.519 19.218.074 27.009.148 18.105.149 29.086 0 29.086 0l1.707-27.586s-44.298-10.16-50.234-10.976"/><path fill="#92CDFE" stroke="#0F110E" stroke-linecap="round" stroke-miterlimit="10" d="M209.541 312.591c8.385-.148 13.133.148 13.133.148l1.707-27.586s-5.046-1.187-12.02-2.744l-2.82 30.182Z"/><path fill="#0F110E" d="M223.119 306.362h-12.911l-.074.816h12.911l.074-.816Zm-12.539-4.45-.075.742 12.837.074.074-.816H210.58Zm1.409-15.276 12.243 1.928v-.741l-12.169-1.929-.074.742Zm12.021 5.265-12.391-1.038-.075.816 12.392 1.038.074-.816Zm-12.985 5.117 12.614.519.074-.816-12.614-.519-.074.816Z"/><path fill="#2E4ECC" stroke="#0F110E" stroke-miterlimit="10" d="M128.069 295.09H37.546c-.89 0-1.633-.742-1.633-1.632v-.37c0-.89.742-1.632 1.633-1.632h90.523c.891 0 1.633.742 1.633 1.632v.37c0 .89-.742 1.632-1.633 1.632Zm0 17.204H37.546c-.89 0-1.633-.741-1.633-1.631v-.371c0-.89.742-1.631 1.633-1.631h90.523c.891 0 1.633.741 1.633 1.631v.371c0 .89-.742 1.631-1.633 1.631Z"/><path fill="#fff" stroke="#0F110E" stroke-linecap="round" stroke-linejoin="round" stroke-miterlimit="10" d="M127.846 293.31H37.397s2.523 4.005.445 17.13h89.559c-2.077-13.125.445-17.13.445-17.13Z"/><path stroke="#92CDFE" stroke-linecap="round" stroke-linejoin="round" stroke-miterlimit="10" d="M40.587 296.425h83.624m-82.361 2.892h79.986m-81.249 2.892h83.624m-83.104 2.892h82.584m-83.771 2.892h84.291"/><path fill="#EB3341" d="M51.05 301.912h6.455l-2.077 4.746-1.855-2.373-3.933 2.373 1.41-4.746Z"/><path fill="#2E4ECC" d="M65 298.798h6.53l-2.078 4.746-1.855-2.373-3.933 2.373L65 298.798Z"/><path fill="#EB3341" stroke="#0F110E" stroke-miterlimit="10" d="M121.465 274.029H44.743a.982.982 0 0 1-.965-.964v-1.78c0-.519.446-.964.965-.964h76.722c.52 0 .965.445.965.964v1.78c.074.519-.371.964-.965.964Zm0 17.353H44.743a.982.982 0 0 1-.965-.964v-1.78c0-.519.446-.964.965-.964h76.722c.52 0 .965.445.965.964v1.78c.074.519-.371.964-.965.964Z"/><path fill="#fff" stroke="#0F110E" stroke-linecap="round" stroke-linejoin="round" stroke-miterlimit="10" d="M120.873 272.249H45.04s2.078 4.005.371 17.279h75.091c-1.707-13.274.371-17.279.371-17.279Z"/><path stroke="#92CDFE" stroke-linecap="round" stroke-linejoin="round" stroke-miterlimit="10" d="M47.71 275.438h70.12m-69.08 2.892h67.077m-68.117 2.892h70.12m-69.748 2.967h69.303m-70.268 2.892h70.712"/><path fill="#EB3341" d="M103.88 281.742h5.417l-1.781 4.82-1.558-2.373-3.265 2.373 1.187-4.82Z"/><path fill="#161522" d="M245.676 307.993h-45.855v4.598h45.855v-4.598Z"/><path fill="#161522" d="M332.861 312.591h-89.782a3.403 3.403 0 0 1-3.413-3.411v-58.065a3.404 3.404 0 0 1 3.413-3.412h89.857a3.404 3.404 0 0 1 3.413 3.412v58.065c-.075 1.854-1.559 3.411-3.488 3.411Z"/><path fill="#fff" stroke="#fff" stroke-miterlimit="10" d="M288.113 288.441a8.381 8.381 0 0 0 7.294-9.344c-.567-4.593-4.753-7.857-9.349-7.29a8.38 8.38 0 1 0 2.055 16.634Z"/><path fill="#161522" d="M20.183 313.258h317.204c4.304 0 8.607.075 12.837 0h.593c.742 0 .742-1.112 0-1.112H33.613c-4.304 0-8.607-.074-12.837 0h-.593c-.668 0-.668 1.112 0 1.112Z"/></svg>