<svg aria-hidden="true" style="position: absolute; width: 0; height: 0; overflow: hidden;" version="1.1" xmlns="http://www.w3.org/2000/svg" xmlns:xlink="http://www.w3.org/1999/xlink">
<defs>
<symbol id="barcode" viewBox="0 0 46 32">
<path d="M5.156-0.001h-5.156v30.936h5.156v-30.936zM18.125-0.001h-5.157v30.936h5.157v-30.936zM25.937-0.001h-5.156v30.936h5.156v-30.936zM46.404-0.001h-7.657v30.936h7.657v-30.936zM10.311-0.001h-2.499v30.936h2.499v-30.936zM30.936-0.001h-2.499v30.936h2.499v-30.936zM36.091-0.001h-2.499v30.936h2.501v-30.936z"></path>
</symbol>
<symbol id="location" viewBox="0 0 22 32">
<path d="M11.213 0c-6.176 0-11.2 4.992-11.2 11.123 0 7.709 11.21 20.877 11.21 20.877s11.19-13.549 11.19-20.877c0-6.134-5.024-11.123-11.2-11.123zM14.592 14.381c-0.931 0.925-2.157 1.386-3.379 1.386s-2.448-0.461-3.379-1.386c-0.863-0.857-1.398-2.045-1.398-3.357s0.534-2.5 1.397-3.357l0-0c0.902-0.896 2.102-1.389 3.379-1.389s2.477 0.493 3.379 1.389c1.862 1.853 1.862 4.864 0 6.714z"></path>
</symbol>
<symbol id="search" viewBox="0 0 32 32">
<path d="M4.027 4.027c2.474-2.487 5.899-4.027 9.683-4.027 0.013 0 0.026 0 0.040 0h-0.002c3.672 0 7.125 1.43 9.721 4.027 2.489 2.474 4.029 5.9 4.029 9.686 0 0.012-0 0.025-0 0.037v-0.002c0 0.010 0 0.023 0 0.035 0 3.456-1.284 6.611-3.402 9.015l0.013-0.015 7.637 7.634c0.17 0.17 0.275 0.405 0.275 0.664 0 0.519-0.421 0.94-0.94 0.94-0.259 0-0.494-0.105-0.664-0.275l-7.634-7.634c-2.388 2.101-5.542 3.384-8.994 3.384-0.014 0-0.029-0-0.043-0h0.002c-0.010 0-0.023 0-0.035 0-3.784 0-7.209-1.539-9.683-4.026l-0.001-0.001c-2.489-2.474-4.029-5.9-4.029-9.686 0-0.012 0-0.025 0-0.037v0.002c0-3.672 1.43-7.125 4.027-9.721zM5.356 22.142c2.149 2.144 5.116 3.47 8.392 3.47s6.243-1.326 8.392-3.471l-0 0c2.145-2.149 3.472-5.117 3.472-8.393s-1.326-6.244-3.472-8.394l0 0c-2.142-2.145-5.102-3.472-8.372-3.472-0.006 0-0.012 0-0.018 0h0.001c-0.006 0-0.014-0-0.021-0-3.269 0-6.229 1.326-8.371 3.469l-0 0c-2.146 2.15-3.473 5.117-3.473 8.395s1.327 6.245 3.473 8.395l-0-0z"></path>
</symbol>
</defs>
</svg>
